{"glyphs":{"0":{"ha":635,"x_min":-33,"x_max":669,"o":"m 378 906 q 467 932 417 944 q 562 869 517 919 q 638 738 607 819 q 669 560 669 657 q 651 424 669 494 q 602 286 633 353 q 526 159 571 219 q 430 53 482 99 q 319 -19 378 7 q 199 -46 260 -46 q 98 -23 139 -46 q 31 37 57 0 q -8 119 6 74 q -26 208 -21 164 q -33 288 -32 251 q -33 346 -33 325 q -1 524 -33 432 q 88 693 32 617 q 217 819 143 769 q 375 868 292 868 q 396 853 388 868 q 410 815 404 838 q 416 768 415 793 q 415 724 417 743 q 408 694 414 704 q 394 692 403 683 q 365 690 386 700 q 317 655 344 681 q 260 590 289 629 q 206 499 231 550 q 165 388 181 449 q 149 261 149 328 q 155 166 149 201 q 172 112 161 131 q 199 88 183 93 q 232 82 214 82 q 304 110 271 82 q 365 184 338 139 q 414 285 393 229 q 449 395 435 340 q 472 498 464 450 q 479 575 479 546 q 473 667 479 619 q 453 760 467 715 q 422 842 440 804 q 378 906 403 881 z "},"1":{"ha":440,"x_min":-62,"x_max":447,"o":"m 229 1000 q 274 992 239 1004 q 349 957 310 979 q 417 907 388 935 q 446 853 447 879 q 434 792 444 838 q 407 681 424 746 q 368 539 390 617 q 323 382 346 461 q 276 228 300 303 q 233 93 253 153 q 199 -5 214 33 q 179 -49 185 -43 q 135 -64 167 -60 q 69 -62 103 -68 q 9 -42 35 -57 q -15 -3 -17 -28 q 1 57 -14 10 q 39 172 15 104 q 90 324 63 240 q 146 495 118 408 q 197 665 174 582 q 233 817 219 749 l 18 447 q -12 483 3 461 q -39 531 -25 503 q -60 599 -53 558 q -47 651 -62 615 q -6 733 -32 688 q 54 825 21 778 q 120 912 88 872 q 181 976 153 951 q 224 1001 208 1001 q 227 1001 226 1001 q 229 1000 228 1000 z "},"2":{"ha":613,"x_min":-83,"x_max":636,"o":"m 381 972 q 485 959 438 972 q 567 918 533 946 q 619 847 601 890 q 633 744 636 804 q 613 673 632 715 q 563 582 593 631 q 494 482 532 533 q 415 381 456 431 q 203 135 321 264 q 308 178 257 158 q 399 208 353 194 q 478 222 446 222 q 515 206 499 222 q 542 165 532 189 q 557 115 553 142 q 559 69 561 89 q 547 40 557 49 q 521 43 538 32 q 474 45 508 51 q 394 24 440 39 q 293 -10 347 10 q 184 -49 239 -31 q 78 -81 129 -67 q -10 -96 28 -94 q -42 -81 -28 -96 q -65 -47 -56 -67 q -79 -9 -75 -28 q -83 17 -83 10 q -45 83 -82 36 q 48 195 -8 131 q 169 336 104 260 q 290 490 233 413 q 385 639 346 567 q 426 768 424 711 q 410 836 429 825 q 362 828 392 847 q 297 767 332 810 q 230 673 261 724 q 176 569 199 622 q 153 478 154 517 q 105 492 125 478 q 72 531 85 507 q 53 586 58 554 q 49 654 47 618 q 64 710 50 678 q 101 778 78 743 q 154 849 124 814 q 222 911 185 883 q 299 956 258 939 q 381 972 339 972 z "},"3":{"ha":615,"x_min":-85,"x_max":644,"o":"m 403 922 q 490 908 446 922 q 569 867 535 894 q 624 797 604 839 q 642 700 644 756 q 626 644 640 672 q 591 590 613 617 q 542 537 569 563 q 488 489 515 511 q 338 389 421 436 q 435 333 394 367 q 467 301 451 319 q 492 261 482 283 q 506 213 503 239 q 503 156 510 186 q 451 49 489 94 q 366 -26 414 4 q 265 -72 318 -57 q 165 -87 211 -87 q 13 -53 67 -87 q -63 26 -42 -19 q -80 114 -85 71 q -56 175 -75 157 q -18 139 -44 157 q 43 106 8 121 q 117 83 78 92 q 192 76 156 75 q 257 91 228 78 q 301 132 286 104 q 320 210 324 175 q 298 272 317 244 q 251 318 279 299 q 193 350 222 338 q 163 362 175 358 q 145 369 151 365 q 137 380 139 374 q 136 401 135 386 q 140 423 136 415 q 153 436 144 431 q 176 449 161 442 q 215 467 192 456 q 310 515 260 488 q 405 574 361 543 q 478 640 449 606 q 511 711 508 675 q 502 755 513 736 q 473 786 492 774 q 430 805 454 799 q 379 811 406 811 q 333 800 354 811 q 292 770 311 789 q 259 728 274 751 q 232 679 244 704 q 185 547 204 621 q 128 572 153 557 q 90 608 107 586 q 75 665 72 631 q 97 744 76 700 q 157 828 117 789 q 258 895 197 868 q 403 922 319 922 z "},"4":{"ha":619,"x_min":-62,"x_max":640,"o":"m 438 885 q 436 899 425 897 q 470 893 447 900 q 522 872 493 886 q 578 839 551 857 q 622 800 604 821 q 639 760 640 779 q 628 701 638 744 q 602 597 618 658 q 565 463 586 536 q 522 314 544 389 q 478 168 500 239 q 438 41 457 97 q 406 -51 419 -15 q 388 -93 393 -87 q 351 -94 376 -104 q 299 -64 325 -85 q 253 -16 272 -43 q 236 36 235 11 q 258 115 238 51 q 308 267 279 179 q 213 263 264 264 q 119 262 163 261 q 43 265 75 263 q 6 274 11 267 q -15 297 -3 283 q -38 327 -28 311 q -56 360 -49 343 q -61 394 -62 378 q -41 440 -61 406 q 10 523 -21 475 q 75 628 40 571 q 140 742 110 685 q 192 850 171 799 q 215 938 214 901 q 231 981 218 974 q 260 976 243 988 q 298 939 278 964 q 335 886 318 914 q 363 834 351 858 q 374 799 374 810 q 361 767 374 790 q 329 713 349 744 q 285 642 310 681 q 233 565 260 604 q 94 364 172 475 l 346 379 q 397 542 372 460 q 435 694 421 625 q 453 815 450 764 q 438 885 456 867 z "},"5":{"ha":706,"x_min":-22,"x_max":697,"o":"m 679 865 q 688 818 697 846 q 654 765 678 790 q 601 721 631 739 q 550 703 571 703 q 466 718 526 703 q 332 749 406 733 l 192 463 q 243 506 206 483 q 354 528 281 528 q 447 504 414 528 q 494 443 479 481 q 513 360 510 406 q 515 269 515 314 q 494 169 515 225 q 433 63 474 113 q 332 -22 392 13 q 196 -56 272 -56 q 108 -40 144 -56 q 50 -2 72 -25 q 16 48 28 21 q 1 98 4 75 q 0 136 -3 121 q 10 151 3 151 q 24 142 19 151 q 40 119 28 132 q 76 97 51 107 q 151 88 101 88 q 217 115 185 88 q 276 184 250 143 q 322 274 303 225 q 350 363 342 322 q 353 432 358 404 q 326 460 349 460 q 263 428 293 460 q 206 357 232 396 q 160 286 181 318 q 126 254 139 254 q 89 266 114 254 q 40 297 64 278 q -3 338 15 315 q -22 381 -22 360 q -5 439 -22 394 q 39 541 13 483 q 95 660 65 599 q 149 769 125 721 q 99 764 119 769 q 97 808 90 785 q 118 851 104 831 q 148 888 132 871 q 172 913 164 904 q 407 907 300 913 q 497 901 453 904 q 578 894 542 899 q 642 882 615 889 q 679 865 669 875 z "},"6":{"ha":604,"x_min":-33,"x_max":619,"o":"m 414 961 q 520 943 479 961 q 583 898 561 925 q 613 840 606 871 q 617 781 619 808 q 606 736 614 754 q 589 718 597 718 q 569 735 576 718 q 550 774 561 753 q 520 812 539 794 q 468 829 501 829 q 390 801 431 829 q 312 726 350 772 q 241 620 274 679 q 188 499 208 561 q 276 557 228 531 q 375 586 324 583 q 447 572 411 588 q 511 527 483 557 q 556 453 539 497 q 569 351 572 408 q 530 176 564 249 q 447 57 496 103 q 339 -10 397 11 q 228 -32 281 -32 q 140 -11 186 -32 q 53 53 93 10 q -10 162 14 96 q -29 319 -33 228 q 22 563 -22 446 q 129 767 65 679 q 268 908 193 856 q 414 961 343 961 m 331 486 q 289 474 314 488 q 239 439 264 461 q 192 390 214 417 q 160 338 171 364 q 172 222 158 267 q 215 146 185 178 q 261 139 232 128 q 319 178 290 150 q 372 248 349 207 q 397 333 394 289 q 395 374 397 349 q 386 423 393 399 q 366 466 379 447 q 331 486 353 485 z "},"7":{"ha":629,"x_min":-36,"x_max":639,"o":"m 99 656 q 93 642 99 639 q 80 663 88 646 q 63 704 72 679 q 47 756 54 729 q 33 805 39 782 q 28 840 28 828 q 65 865 28 853 q 161 885 103 876 q 288 898 219 893 q 418 903 356 903 q 526 897 481 903 q 585 879 572 892 q 615 826 604 860 q 631 760 625 793 q 639 678 636 721 q 410 393 510 529 q 326 274 367 335 q 253 156 285 214 q 201 49 221 99 q 182 -37 182 -1 q 172 -51 182 -49 q 147 -50 163 -53 q 113 -40 132 -47 q 72 -22 93 -32 q -36 33 25 0 q 167 339 72 200 q 247 458 207 399 q 324 567 288 517 q 389 656 360 618 q 435 710 418 693 q 416 717 439 714 q 356 719 393 719 q 274 714 318 718 q 190 702 229 710 q 125 683 151 694 q 99 656 99 672 z "},"8":{"ha":685,"x_min":-104,"x_max":706,"o":"m 706 726 q 687 679 706 706 q 637 623 668 653 q 564 561 606 593 q 475 496 522 529 q 557 399 522 451 q 592 289 592 347 q 548 140 592 206 q 440 31 504 75 q 299 -35 375 -12 q 160 -58 224 -58 q 43 -42 96 -58 q -44 7 -10 -26 q -92 93 -79 40 q -87 221 -104 146 q -52 290 -81 256 q 19 358 -24 324 q 115 428 63 393 q 224 501 168 464 q 130 593 169 544 q 90 699 90 642 q 131 819 90 767 q 227 906 171 871 q 344 958 283 940 q 447 976 406 976 q 509 963 485 976 q 548 930 533 950 q 568 887 563 910 q 575 844 574 864 q 588 921 588 882 q 679 877 653 921 q 706 726 706 833 m 443 294 q 416 349 443 322 q 349 407 389 376 q 242 331 293 368 q 151 258 190 293 q 88 192 111 224 q 64 136 64 161 q 86 56 64 92 q 157 21 108 21 q 228 49 181 21 q 324 119 276 78 q 408 208 372 161 q 443 294 443 256 m 285 707 q 307 656 285 683 q 363 597 329 629 q 483 703 429 649 q 565 819 538 758 q 531 827 556 826 q 474 823 506 828 q 410 808 443 818 q 349 783 376 797 q 303 749 321 768 q 285 707 285 729 z "},"9":{"ha":601,"x_min":-46,"x_max":606,"o":"m 347 907 q 434 886 388 907 q 519 822 481 865 q 582 713 558 779 q 601 556 606 647 q 551 313 594 429 q 444 108 508 197 q 305 -33 381 19 q 158 -86 229 -86 q 52 -68 93 -86 q -11 -23 11 -50 q -40 35 -33 4 q -43 94 -46 67 q -32 139 -40 121 q -15 157 -24 157 q 5 140 -3 157 q 24 101 13 122 q 53 63 35 81 q 106 46 72 46 q 182 74 142 46 q 260 149 222 103 q 331 256 299 196 q 385 378 364 315 q 297 319 344 346 q 197 289 249 292 q 126 303 161 288 q 62 349 90 318 q 17 423 33 379 q 3 524 0 467 q 43 699 8 626 q 127 818 78 772 q 235 885 176 864 q 347 907 293 907 m 242 390 q 283 402 258 389 q 333 438 308 415 q 380 486 358 460 q 413 539 401 513 q 401 653 415 608 q 357 731 388 699 q 311 737 340 747 q 253 697 282 726 q 201 627 224 668 q 176 543 178 586 q 177 502 175 528 q 186 452 179 476 q 206 410 193 428 q 242 390 219 392 z "},"\u0000":{"ha":0,"x_min":0,"x_max":0,"o":""},"\r":{"ha":433,"x_min":0,"x_max":0,"o":""}," ":{"ha":433,"x_min":0,"x_max":0,"o":""},"d":{"ha":821,"x_min":-74,"x_max":915,"o":"m 867 481 q 894 497 883 499 q 910 476 904 496 q 908 394 915 456 q 740 174 817 271 q 676 92 708 132 q 619 22 644 53 q 576 -28 593 -10 q 554 -47 558 -47 l 553 -47 l 551 -47 q 500 -35 539 -46 q 420 -8 461 -25 q 347 32 379 10 q 315 78 315 54 q 328 186 315 121 q 276 100 300 140 q 231 31 251 60 q 197 -15 211 1 q 176 -32 182 -32 q 150 -26 171 -32 q 101 -11 129 -21 q 43 13 74 -1 q -14 42 13 26 q -57 76 -40 58 q -74 114 -74 94 q -60 244 -74 179 q -23 366 -46 308 q 28 473 0 424 q 83 558 56 522 q 136 615 111 594 q 178 635 161 635 q 240 629 204 635 q 313 613 276 624 q 378 585 349 603 q 422 546 408 568 q 456 617 433 568 q 506 726 479 665 q 558 850 532 786 q 601 967 585 914 q 649 959 613 974 q 724 919 686 944 q 790 867 763 894 q 808 821 817 839 q 785 769 803 808 q 745 672 768 729 q 696 544 722 614 q 644 399 669 474 q 598 251 619 325 q 565 113 576 176 q 601 149 579 126 q 646 201 622 172 q 695 260 669 229 q 746 324 721 292 q 867 481 803 397 m 138 57 q 189 122 160 82 q 250 209 218 161 q 317 310 282 257 q 383 418 351 364 q 392 452 388 435 q 404 486 397 469 q 391 501 399 494 q 369 508 383 508 q 294 465 335 508 q 218 354 253 421 q 160 208 183 288 q 138 58 138 129 l 138 57 z "},"e":{"ha":672,"x_min":-53,"x_max":768,"o":"m 706 442 q 731 443 719 450 q 752 423 743 436 q 765 396 761 410 q 765 376 768 382 q 720 313 751 354 q 647 221 689 271 q 556 119 606 171 q 456 26 506 68 q 358 -44 406 -17 q 271 -71 310 -71 q 167 -56 224 -71 q 62 -8 111 -40 q -20 76 13 25 q -53 197 -53 126 q -17 385 -53 297 q 67 540 18 474 q 171 645 117 606 q 264 686 225 685 q 303 676 275 686 q 363 649 331 665 q 424 614 394 633 q 468 576 453 594 q 492 571 478 576 q 519 551 506 565 q 542 513 532 538 q 551 449 551 488 q 533 360 549 404 q 488 280 517 315 q 415 222 458 244 q 315 199 372 199 q 220 219 253 199 q 176 269 188 239 q 168 242 172 254 q 161 217 164 229 q 156 192 158 206 q 153 158 154 178 q 161 106 151 129 q 189 65 171 82 q 230 40 207 49 q 278 33 253 32 q 342 56 306 35 q 419 113 378 78 q 501 191 460 147 q 581 280 543 235 q 652 367 619 325 q 706 442 685 410 m 426 547 q 384 533 413 547 q 322 492 356 519 q 253 420 288 464 q 193 315 218 376 q 213 304 200 308 q 244 300 225 300 q 319 324 285 300 q 379 385 353 349 q 424 464 406 422 q 450 539 442 506 q 426 547 442 547 z "},"f":{"ha":614,"x_min":-233,"x_max":651,"o":"m 631 451 q 642 425 638 443 q 649 386 647 407 q 650 347 651 365 q 643 322 649 329 q 609 285 633 310 q 550 231 585 261 q 473 167 515 200 q 384 107 431 135 q 290 58 338 79 q 200 32 243 38 q 238 -15 222 10 q 254 -65 253 -39 q 254 -142 256 -93 q 245 -247 253 -190 q 222 -360 238 -303 q 178 -463 206 -417 q 111 -539 151 -510 q 14 -568 71 -568 q -51 -547 -11 -568 q -131 -495 -92 -526 q -199 -428 -169 -464 q -229 -360 -228 -392 q -211 -162 -233 -275 q -149 69 -189 -50 q -57 305 -108 189 q 49 512 -6 421 q 154 659 103 603 q 244 715 206 715 q 358 664 310 689 q 399 641 379 653 q 433 617 418 629 q 456 594 447 606 q 461 575 464 583 q 485 550 472 564 q 510 522 499 536 q 528 495 521 508 q 535 472 535 482 q 518 429 533 460 q 482 369 503 399 q 441 316 461 339 q 408 294 421 293 q 374 310 396 296 q 335 342 353 325 q 308 372 317 358 q 311 383 299 385 q 325 389 317 382 q 342 408 333 396 q 361 436 351 421 q 381 468 371 451 q 426 556 403 506 l 428 564 q 339 515 383 554 q 253 418 294 476 q 175 286 213 360 q 106 135 138 213 q 126 127 115 131 q 153 124 138 124 q 197 135 164 124 q 273 167 229 146 q 369 217 317 188 q 470 283 421 246 q 562 362 519 319 q 631 451 604 404 m -1 -518 q 28 -490 14 -518 q 55 -419 43 -462 q 77 -324 67 -376 q 94 -221 88 -271 q 105 -129 101 -171 q 107 -65 108 -87 q 97 5 104 -24 q 85 49 90 33 q 75 57 81 51 q 31 -71 50 -8 q -1 -188 13 -133 q -20 -287 -14 -243 q -25 -358 -26 -331 q -23 -401 -24 -374 q -20 -453 -22 -428 q -14 -499 -18 -479 q -1 -518 -10 -518 z "},"g":{"ha":721,"x_min":-142,"x_max":819,"o":"m 600 -31 q 698 -53 657 -31 q 766 -112 739 -76 q 806 -194 793 -149 q 819 -286 819 -240 q 803 -332 819 -306 q 767 -380 788 -358 q 731 -412 747 -401 q 715 -410 715 -422 q 702 -345 715 -379 q 657 -283 689 -311 q 572 -237 625 -256 q 442 -218 519 -219 q 360 -406 401 -317 q 280 -564 319 -496 q 203 -673 240 -632 q 135 -714 165 -714 q 48 -703 96 -714 q -42 -658 0 -692 q -113 -565 -85 -625 q -142 -407 -142 -506 q -110 -305 -142 -356 q -19 -208 -78 -254 q 121 -125 39 -162 q 303 -64 203 -87 q 377 142 342 39 q 440 338 413 244 q 367 206 404 272 q 299 88 331 140 q 244 1 268 35 q 211 -32 221 -32 q 183 -24 197 -32 q 113 9 156 -12 q 28 56 69 31 q -42 110 -12 82 q -72 163 -72 139 q -60 252 -72 203 q -28 351 -47 301 q 17 449 -8 401 q 67 534 42 497 q 115 593 92 571 q 154 615 138 615 q 217 606 179 615 q 295 580 254 596 q 373 542 336 564 q 432 497 410 521 q 461 549 447 525 q 485 590 475 572 q 506 626 496 610 q 547 610 513 626 q 617 572 581 594 q 678 525 653 550 q 696 482 704 500 q 676 424 692 471 q 635 308 660 378 q 580 149 611 238 q 514 -33 549 61 q 556 -31 535 -31 q 600 -31 578 -31 m 142 85 q 156 79 143 69 q 190 115 168 89 q 238 183 211 142 q 294 270 265 224 q 354 367 324 317 q 411 463 385 417 q 388 470 400 467 q 361 474 376 474 q 317 453 340 474 q 270 398 293 432 q 226 322 247 364 q 188 235 206 279 q 158 152 171 192 q 142 85 146 113 m 53 -585 q 81 -559 63 -585 q 123 -488 100 -533 q 174 -381 146 -443 q 231 -247 201 -319 q 81 -328 139 -276 q 24 -443 24 -379 q 27 -519 24 -492 q 35 -562 31 -547 q 45 -581 40 -576 q 53 -585 50 -585 z "},"h":{"ha":831,"x_min":-79,"x_max":943,"o":"m 868 485 q 906 510 889 507 q 931 496 919 513 q 943 425 943 479 q 758 190 842 293 q 688 104 722 146 q 623 30 653 63 q 572 -23 593 -3 q 542 -43 550 -43 q 510 -37 526 -43 q 482 -21 494 -32 q 431 6 458 -10 q 380 36 403 21 q 341 65 357 51 q 325 89 325 79 q 328 157 321 119 q 349 235 335 194 q 382 319 363 276 q 422 404 401 363 q 339 292 382 351 q 260 172 296 232 q 197 56 224 113 q 163 -44 171 0 q 115 -26 153 -44 q 36 16 78 -8 q -39 64 -6 40 q -74 99 -72 88 q -59 226 -79 147 q -7 395 -39 304 q 64 581 25 486 q 136 758 103 676 q 191 900 169 840 q 210 982 213 960 q 259 967 224 982 q 332 930 294 951 q 399 885 369 908 q 431 843 429 861 q 408 777 432 832 q 350 641 385 722 q 276 462 315 560 q 208 267 238 364 q 321 426 260 350 q 435 560 382 503 q 523 653 488 618 q 558 688 558 688 q 603 674 572 688 q 667 640 635 660 q 725 597 700 619 q 753 557 750 574 q 728 494 754 542 q 666 381 701 447 q 596 235 631 314 q 546 82 561 157 q 644 194 589 126 q 750 328 700 263 q 868 485 808 404 z "},"i":{"ha":394,"x_min":-75,"x_max":493,"o":"m 350 694 q 306 706 340 694 q 236 738 272 718 q 171 781 200 757 q 142 829 142 806 q 157 892 142 857 q 191 961 172 928 q 225 1020 210 994 q 240 1056 240 1046 q 262 1048 244 1056 q 302 1028 279 1040 q 350 1001 325 1017 q 394 970 375 986 q 425 939 414 954 q 431 913 436 924 q 406 856 419 888 q 379 794 392 825 q 358 737 367 764 q 350 694 350 710 m 443 476 q 468 496 457 496 q 485 477 478 496 q 493 401 493 458 q 340 165 408 269 q 283 78 311 121 q 231 3 254 36 q 191 -51 207 -31 q 171 -71 175 -71 q 149 -65 160 -71 q 128 -53 139 -60 q 74 -26 108 -46 q 7 18 40 -7 q -51 69 -26 43 q -75 117 -75 96 q -61 214 -75 157 q -26 332 -47 271 q 19 453 -6 393 q 65 563 44 514 q 100 645 86 613 q 114 683 114 678 q 135 676 118 683 q 176 656 153 668 q 224 629 199 644 q 268 598 249 614 q 299 567 288 582 q 304 540 310 551 q 274 473 296 521 q 226 360 251 425 q 178 222 201 296 q 144 79 156 149 l 443 476 z "},"k":{"ha":613,"x_min":-115,"x_max":722,"o":"m 711 -261 q 715 -278 722 -261 q 686 -317 707 -296 q 635 -356 665 -339 q 569 -374 604 -374 q 480 -352 521 -374 q 405 -295 439 -331 q 344 -214 371 -260 q 296 -121 317 -168 q 218 133 247 -10 q 187 89 204 119 q 153 24 169 58 q 122 -42 136 -10 q 101 -90 108 -74 q 102 -99 101 -96 q 103 -104 103 -101 q 104 -110 103 -107 q 57 -96 93 -110 q -17 -60 21 -82 q -85 -9 -56 -37 q -115 49 -115 19 q -87 188 -115 100 q -16 378 -58 275 q 74 588 26 481 q 162 784 122 694 q 225 935 201 874 q 240 1008 249 996 q 281 995 249 1008 q 349 961 314 982 q 413 913 385 940 q 442 858 442 886 q 421 800 442 846 q 367 688 400 754 q 295 540 335 621 q 218 375 256 458 q 312 483 264 431 q 405 576 360 536 q 488 641 450 617 q 549 665 525 665 q 596 643 574 665 q 635 593 618 621 q 672 522 654 561 q 513 426 576 474 q 410 340 449 378 q 338 256 364 296 q 355 179 338 228 q 402 73 372 131 q 470 -44 432 15 q 549 -151 508 -103 q 633 -231 590 -200 q 711 -261 675 -261 z "},"l":{"ha":419,"x_min":-119,"x_max":519,"o":"m 467 449 q 493 468 481 468 q 511 449 503 468 q 519 374 519 431 q 317 79 407 208 q 240 -29 278 24 q 172 -124 203 -82 q 121 -190 142 -165 q 96 -215 100 -215 q 47 -194 72 -215 q -4 -162 25 -182 q -59 -121 -33 -143 q -102 -76 -85 -99 q -119 -35 -119 -54 q -101 80 -119 6 q -53 247 -83 154 q 15 442 -24 339 q 96 644 54 544 q 180 833 138 744 q 258 985 222 921 q 303 976 269 992 q 369 934 336 960 q 426 880 403 908 q 440 833 449 851 q 410 773 433 819 q 354 658 388 726 q 283 503 321 589 q 208 322 244 417 q 142 131 172 228 q 96 -57 111 33 q 146 6 118 -31 q 204 83 174 42 q 266 167 235 124 q 326 250 297 210 q 467 449 394 346 z "},"m":{"ha":1111,"x_min":-118,"x_max":1175,"o":"m 1140 458 q 1157 460 1150 467 q 1169 431 1164 453 q 1175 357 1175 410 q 990 71 1072 197 q 922 -34 956 17 q 859 -125 888 -85 q 813 -190 831 -165 q 790 -214 794 -214 q 782 -212 785 -214 l 782 -214 q 742 -196 774 -214 q 677 -153 711 -178 q 616 -103 643 -128 q 589 -67 589 -79 q 605 9 589 -46 q 644 137 621 64 q 697 292 668 210 q 750 453 725 375 q 694 374 726 419 q 627 278 663 329 q 557 175 592 228 q 493 76 522 122 q 444 -6 464 31 q 418 -61 424 -42 q 380 -44 410 -61 q 317 -6 350 -28 q 257 40 283 17 q 231 75 231 63 q 249 146 231 93 q 296 265 268 199 q 226 165 263 218 q 158 63 190 113 q 103 -26 126 14 q 75 -89 81 -67 q 35 -71 67 -89 q -30 -28 4 -53 q -91 22 -64 -3 q -118 58 -118 46 q -104 125 -118 79 q -69 229 -90 171 q -25 352 -49 288 q 19 476 -1 417 q 54 584 40 536 q 68 657 68 632 q 112 642 81 657 q 175 608 143 628 q 232 565 207 588 q 257 528 257 543 q 244 468 257 508 q 213 374 232 428 q 170 258 193 319 q 126 135 147 196 q 219 281 167 201 q 318 429 271 360 q 431 592 374 510 q 469 577 442 592 q 526 542 497 563 q 576 502 554 522 q 599 472 599 482 q 590 440 599 464 q 566 379 581 415 q 533 299 551 343 q 496 208 514 254 q 544 288 518 246 q 597 371 569 329 q 651 453 624 413 q 703 532 678 494 q 818 704 760 618 q 861 686 831 704 q 924 643 892 668 q 981 592 957 618 q 1006 551 1006 567 q 996 503 1006 538 q 971 422 986 469 q 935 317 956 375 q 894 199 915 260 q 853 76 874 138 q 817 -39 832 15 q 858 17 835 -17 q 908 90 882 50 q 963 172 935 129 q 1015 256 990 214 q 1140 458 1075 353 z "},"n":{"ha":697,"x_min":-131,"x_max":800,"o":"m 746 415 q 772 438 760 435 q 791 422 782 439 q 800 349 800 404 q 622 100 701 208 q 556 8 589 53 q 495 -71 522 -36 q 451 -127 468 -106 q 429 -149 433 -149 q 425 -148 426 -149 q 421 -147 424 -147 l 421 -149 q 381 -131 413 -149 q 316 -87 350 -112 q 255 -38 282 -62 q 228 -1 228 -14 q 241 67 228 19 q 274 175 254 114 q 317 303 294 236 q 361 433 340 371 q 303 345 335 394 q 239 244 271 296 q 176 140 207 192 q 121 42 146 88 q 79 -37 96 -3 q 57 -90 63 -72 q 19 -74 49 -90 q -44 -35 -11 -57 q -104 9 -78 -14 q -131 44 -131 32 q -117 100 -131 60 q -82 195 -103 140 q -37 312 -61 250 q 8 432 -12 374 q 43 538 29 490 q 57 610 57 585 q 115 594 83 610 q 174 560 147 579 q 219 520 201 540 q 238 490 238 500 q 231 462 238 483 q 212 408 224 440 q 185 337 200 376 q 154 254 171 297 q 224 385 188 319 q 297 505 261 451 q 361 592 332 558 q 410 626 390 626 q 453 608 422 626 q 515 565 483 590 q 572 515 547 540 q 597 474 597 489 q 581 403 597 453 q 543 290 565 354 q 495 153 521 225 q 451 15 469 82 q 489 58 468 32 q 533 116 510 85 q 582 182 557 147 q 631 250 607 217 q 746 415 686 328 z "},"o":{"ha":711,"x_min":-67,"x_max":826,"o":"m 804 468 q 822 419 817 444 q 824 372 826 397 q 806 322 822 346 q 730 250 776 283 q 635 193 683 217 q 507 156 571 163 q 445 67 479 111 q 372 -12 411 22 q 289 -69 332 -47 q 201 -90 246 -90 q 123 -66 167 -90 q 40 -7 79 -42 q -28 66 0 28 q -58 133 -56 104 q -42 307 -67 219 q 25 465 -18 394 q 124 581 68 536 q 232 626 179 626 q 288 610 254 626 q 357 573 322 594 q 420 530 392 551 q 460 499 449 508 q 501 486 481 494 q 538 461 521 478 q 568 419 556 444 q 585 354 581 393 q 553 242 588 318 q 580 251 568 246 q 603 261 592 257 q 663 300 633 276 q 718 351 692 324 q 766 409 744 379 q 804 468 788 439 m 449 406 q 427 450 444 438 q 392 465 410 463 q 315 400 354 444 q 313 387 313 393 q 313 374 313 381 q 323 337 314 356 q 344 302 332 318 q 372 273 357 286 q 400 251 386 260 q 438 343 424 301 q 449 406 451 385 m 178 -8 q 224 8 200 -8 q 273 50 249 24 q 321 111 297 76 q 365 183 344 146 q 326 211 346 194 q 290 247 307 228 q 268 278 279 261 q 249 317 257 296 q 178 175 204 250 q 160 33 153 100 q 160 22 160 29 q 163 8 161 15 q 169 -3 165 1 q 178 -8 172 -8 z "},"p":{"ha":732,"x_min":-210,"x_max":675,"o":"m 406 642 q 490 622 443 642 q 578 569 538 601 q 647 496 619 536 q 675 417 675 456 q 664 344 675 390 q 633 242 653 297 q 589 131 614 188 q 535 27 564 74 q 476 -49 506 -19 q 417 -78 446 -78 q 317 -60 365 -78 q 230 -19 268 -43 q 169 28 192 4 q 146 64 146 51 q 150 76 146 76 q 163 72 154 76 q 184 61 171 67 q 217 56 197 56 q 281 85 250 56 q 338 161 313 115 q 385 261 364 207 q 421 366 406 315 q 444 456 436 417 q 451 508 451 494 q 445 535 451 528 q 428 543 439 543 q 331 488 379 543 q 238 343 283 432 q 154 142 193 254 q 85 -83 115 29 q 35 -299 54 -196 q 11 -474 15 -403 l 11 -519 q -19 -524 1 -529 q -63 -503 -39 -518 q -113 -469 -87 -489 q -160 -430 -139 -449 q -196 -396 -182 -411 q -210 -375 -210 -381 q -197 -287 -210 -346 q -165 -149 -185 -228 q -120 20 -146 -71 q -67 203 -94 111 q -15 382 -40 294 q 31 540 11 469 q 63 658 50 610 q 75 718 75 706 q 136 702 101 718 q 201 663 171 686 q 252 613 231 640 q 275 565 274 586 q 340 622 307 601 q 406 642 372 642 z "},"q":{"ha":740,"x_min":-72,"x_max":739,"o":"m 581 -132 q 617 -156 597 -132 q 653 -208 636 -179 q 681 -264 669 -237 q 692 -297 692 -290 q 683 -314 692 -308 q 676 -317 679 -317 q 669 -306 675 -311 q 655 -297 664 -301 q 629 -293 646 -293 q 503 -321 572 -293 q 371 -383 433 -349 q 263 -444 308 -417 q 208 -472 218 -472 q 174 -450 192 -472 q 142 -401 156 -428 q 120 -349 128 -374 q 117 -319 113 -324 q 147 -301 119 -317 q 214 -265 174 -286 q 205 -251 208 -258 q 201 -236 201 -243 q 224 -94 201 -176 q 283 79 247 -12 q 237 21 256 43 q 211 -1 218 -1 q 183 8 200 -1 q 113 40 156 18 q 28 88 69 61 q -42 142 -12 114 q -72 194 -72 171 q -56 284 -72 235 q -15 383 -40 333 q 40 481 10 433 q 101 565 71 528 q 158 624 132 601 q 201 646 185 646 q 265 636 226 646 q 344 610 303 626 q 422 573 385 594 q 481 528 458 551 q 507 566 496 549 q 526 596 518 583 q 544 622 536 611 l 546 622 q 553 635 550 629 q 558 644 556 640 l 563 653 q 650 613 611 636 q 711 563 683 593 q 739 497 739 533 q 697 442 722 481 q 643 352 672 404 q 583 236 614 300 q 522 103 551 172 q 467 -35 493 35 q 425 -171 442 -106 q 512 -143 471 -154 q 581 -132 553 -132 m 142 114 q 160 111 144 100 q 202 150 176 122 q 260 219 228 178 q 326 308 292 261 q 394 403 360 356 q 457 494 428 451 q 435 502 447 499 q 408 506 424 506 q 360 484 386 506 q 306 428 333 463 q 251 351 278 394 q 201 265 224 308 q 163 181 179 221 q 142 114 147 142 z "},"r":{"ha":731,"x_min":-25,"x_max":825,"o":"m 800 460 q 812 439 806 449 q 822 415 818 429 q 823 382 825 401 q 811 332 821 363 q 606 92 699 197 q 526 4 565 47 q 455 -72 488 -39 q 399 -126 422 -106 q 368 -147 376 -147 l 364 -147 q 357 -146 360 -147 q 329 -135 346 -144 q 275 -104 306 -124 q 216 -62 244 -85 q 168 -17 188 -40 q 149 25 149 6 q 167 128 149 67 q 214 259 186 190 q 274 398 242 328 q 335 526 307 468 q 289 510 313 519 q 245 492 265 501 q 210 476 225 483 q 190 464 196 468 q 153 478 183 464 l 50 343 q 29 332 38 328 q 16 356 22 335 q 10 433 10 376 l 74 525 q 5 581 35 551 q -25 635 -25 611 q -1 723 -25 674 q 53 818 24 772 q 106 899 82 864 q 131 942 131 933 q 172 926 138 942 q 242 887 206 910 q 303 840 278 864 q 321 797 329 815 q 279 720 307 768 q 226 615 251 672 q 280 635 251 626 q 333 651 308 644 q 376 662 358 658 q 400 665 394 665 l 401 665 l 403 665 q 428 651 410 663 q 468 623 446 640 q 515 584 490 606 q 557 542 539 563 q 585 503 575 522 q 590 474 596 485 q 553 403 582 454 q 490 283 524 351 q 423 136 456 214 q 374 -14 390 58 q 430 40 399 8 q 496 110 461 72 q 567 188 531 147 q 636 267 603 228 q 800 460 715 358 z "},"s":{"ha":414,"x_min":-282,"x_max":372,"o":"m 225 665 q 313 642 282 665 q 356 590 343 619 q 371 531 369 560 q 372 493 372 503 q 353 476 372 483 q 310 454 333 469 q 267 409 286 439 q 247 322 247 379 q 260 251 247 288 q 288 178 272 215 q 317 104 304 142 q 329 29 329 67 q 309 -52 329 -8 q 249 -133 289 -96 q 146 -196 208 -171 q -1 -221 83 -221 q -108 -206 -57 -221 q -197 -165 -158 -190 q -259 -106 -236 -139 q -282 -37 -282 -74 q -255 18 -282 -3 q -193 48 -228 39 q -127 56 -158 57 q -89 47 -96 54 q -87 24 -82 40 q -97 -10 -92 7 q -98 -39 -101 -26 q -71 -51 -94 -51 q -23 -45 -47 -51 q 21 -26 1 -39 q 53 6 40 -14 q 65 50 65 25 q 58 112 65 75 q 42 189 51 149 q 26 269 33 229 q 19 339 19 308 q 34 448 19 390 q 76 554 49 506 q 141 634 103 603 q 225 665 179 665 z "},"t":{"ha":446,"x_min":-114,"x_max":525,"o":"m 478 469 q 501 486 490 486 q 517 467 510 485 q 525 394 525 449 q 326 100 415 229 q 251 -8 289 44 q 184 -103 214 -61 q 134 -169 154 -144 q 110 -194 114 -194 q 61 -174 86 -194 q 10 -142 39 -161 q -44 -100 -18 -122 q -87 -56 -69 -78 q -106 -14 -106 -33 q -94 72 -106 18 q -63 192 -83 125 q -17 335 -43 258 q 40 493 10 413 q -35 487 -8 493 q -76 475 -62 481 q -96 467 -90 469 q -106 469 -101 464 q -104 501 -114 476 q -77 557 -94 526 q -38 617 -60 588 q 0 663 -17 646 q 40 672 10 672 q 111 668 69 672 q 149 756 132 717 q 181 827 165 794 q 210 890 196 860 q 243 951 225 919 q 288 942 254 958 q 354 901 321 926 q 410 846 388 875 q 425 799 433 817 q 417 780 422 790 q 403 752 413 769 q 381 707 394 735 q 349 638 368 679 q 417 638 388 635 q 457 651 446 640 q 472 655 471 664 q 467 624 474 646 q 446 573 460 601 q 417 519 432 544 q 385 475 401 493 q 356 458 368 457 q 313 466 333 463 q 274 472 293 469 q 177 219 222 351 q 110 -36 132 88 q 160 26 132 -10 q 219 103 189 63 q 279 188 249 144 q 339 271 310 231 q 478 469 406 367 z "},"u":{"ha":821,"x_min":-99,"x_max":892,"o":"m 843 457 q 867 479 856 478 q 884 461 876 481 q 892 382 892 442 q 708 126 790 239 q 640 33 674 78 q 578 -49 606 -12 q 531 -106 550 -85 q 508 -128 513 -128 l 506 -128 q 458 -107 494 -128 q 383 -58 422 -86 q 314 1 344 -29 q 283 49 283 31 q 297 131 283 85 q 329 231 310 178 q 263 127 296 176 q 203 39 231 78 q 156 -23 176 0 q 128 -46 136 -46 q 122 -44 124 -46 l 122 -46 q 76 -25 111 -46 q 1 24 40 -4 q -68 83 -37 53 q -99 132 -99 113 q -85 222 -99 172 q -52 323 -72 271 q -8 426 -32 375 q 35 524 15 478 q 69 608 56 571 q 82 668 82 644 q 132 651 99 668 q 199 611 165 635 q 257 561 232 588 q 282 514 282 535 q 265 461 282 499 q 226 371 249 424 q 178 251 203 318 q 136 107 153 183 q 177 153 153 122 q 228 226 201 185 q 285 315 256 267 q 342 410 314 363 q 479 653 407 521 q 529 637 496 653 q 596 597 563 621 q 654 547 629 574 q 679 500 679 521 q 661 440 679 483 q 618 333 643 396 q 566 194 593 271 q 521 35 539 117 q 560 78 538 51 q 610 138 583 104 q 663 207 636 171 q 717 279 690 243 q 843 457 778 363 z "},"v":{"ha":614,"x_min":-69,"x_max":856,"o":"m 665 896 q 698 894 678 901 q 741 870 718 886 q 786 833 764 854 q 824 792 808 813 q 848 756 840 772 q 849 735 856 740 q 840 738 846 733 q 828 747 835 742 q 813 753 821 751 q 796 746 804 754 q 504 414 622 569 q 311 139 386 258 q 169 -118 224 0 q 139 -108 154 -118 q 109 -83 124 -97 q 83 -53 94 -68 q 64 -29 71 -39 q 20 1 43 -17 q -23 35 -3 18 q -56 67 -43 51 q -69 94 -69 83 q -60 156 -69 113 q -37 254 -51 199 q -7 372 -24 310 q 24 492 10 435 q 47 594 38 549 q 56 660 56 639 q 120 645 86 661 q 181 607 154 629 q 224 560 208 585 q 236 518 240 535 q 226 473 233 506 q 208 395 218 440 q 184 299 197 350 q 158 197 171 247 q 239 330 194 260 q 331 470 283 400 q 428 607 379 540 q 521 730 476 674 q 603 829 565 786 q 665 896 640 872 z "},"w":{"ha":1018,"x_min":-90,"x_max":1313,"o":"m 1126 894 q 1158 892 1139 900 q 1200 869 1178 885 q 1244 831 1222 853 q 1283 790 1267 810 q 1306 753 1299 769 q 1306 732 1313 738 q 1298 735 1303 731 q 1285 743 1293 739 q 1269 749 1278 747 q 1253 743 1261 750 q 1103 599 1175 674 q 968 447 1032 524 q 849 294 904 369 q 749 150 794 218 q 556 -168 642 -10 q 526 -156 540 -168 q 499 -128 511 -144 q 475 -94 486 -111 q 457 -68 464 -78 q 413 -37 436 -54 q 370 -3 390 -21 q 337 29 350 14 q 324 56 324 44 q 332 109 324 72 q 353 194 340 146 q 381 295 365 242 q 410 399 396 349 q 360 315 389 363 q 299 215 331 267 q 237 112 268 163 q 179 22 206 61 q 135 -43 153 -18 q 114 -68 118 -68 l 113 -68 q 70 -49 103 -68 q 2 -5 38 -31 q -62 47 -33 21 q -90 89 -90 74 q -76 179 -90 124 q -40 299 -61 235 q 7 432 -18 364 q 53 559 32 500 q 90 663 75 618 q 104 728 104 708 q 149 713 118 728 q 210 676 179 697 q 265 630 242 654 q 289 589 289 606 q 269 524 289 575 q 224 403 250 474 q 170 249 197 332 q 126 86 143 165 q 164 135 142 104 q 213 204 186 167 q 266 283 239 242 q 319 367 293 325 q 449 574 381 464 q 466 566 451 574 q 502 547 481 558 q 547 519 524 535 q 590 489 571 504 q 622 458 610 474 q 631 432 633 443 q 621 394 628 421 q 604 331 614 368 q 583 252 594 294 q 558 168 571 210 q 653 301 601 229 q 760 447 706 374 q 869 590 815 519 q 973 722 924 661 q 1062 827 1022 782 q 1126 894 1101 872 z "},"x":{"ha":589,"x_min":-176,"x_max":625,"o":"m 499 721 q 528 716 506 726 q 574 689 551 706 q 611 654 597 672 q 614 628 625 636 q 601 628 610 625 q 575 615 593 631 q 421 468 490 540 q 293 328 351 396 q 348 206 321 265 q 397 97 375 146 q 433 17 418 49 q 453 -18 449 -14 q 467 -29 461 -28 q 475 -28 472 -31 q 481 -18 479 -25 q 481 -44 483 -33 q 469 -62 478 -54 q 443 -69 461 -69 q 397 -76 428 -69 q 335 -88 367 -83 q 276 -92 303 -93 q 242 -75 249 -90 q 199 24 222 -32 q 150 140 176 79 q 65 5 99 65 q 10 -100 31 -56 q -31 -192 -15 -151 q -84 -174 -58 -192 q -131 -132 -110 -156 q -176 -71 -156 -106 q -126 -3 -156 -42 q -61 81 -96 36 q 13 175 -26 126 q 94 274 53 224 q 48 380 71 329 q 5 470 25 431 q -32 536 -15 510 q -60 569 -49 563 q -57 581 -67 574 q -28 599 -47 589 q 17 617 -8 608 q 66 635 42 626 q 108 648 90 643 q 132 653 126 653 q 146 637 136 653 q 169 592 156 621 q 201 526 183 564 q 239 446 219 489 q 319 537 281 493 q 391 617 357 581 q 452 679 425 653 q 499 721 479 706 z "},"y":{"ha":736,"x_min":-150,"x_max":813,"o":"m 593 -51 q 690 -74 649 -51 q 759 -133 732 -97 q 799 -215 786 -169 q 813 -307 813 -261 q 796 -351 813 -325 q 760 -399 779 -378 q 724 -432 740 -421 q 707 -431 707 -443 q 694 -366 707 -400 q 649 -304 681 -332 q 564 -258 617 -276 q 433 -239 511 -240 q 352 -427 393 -337 q 272 -585 311 -517 q 194 -694 232 -653 q 126 -735 157 -735 q 40 -724 88 -735 q -51 -679 -8 -712 q -122 -586 -93 -646 q -150 -428 -150 -526 q -118 -326 -150 -376 q -28 -229 -86 -275 q 113 -146 31 -183 q 294 -85 194 -108 q 382 159 340 38 q 453 383 424 281 q 394 292 426 342 q 326 190 361 242 q 258 91 292 139 q 195 6 224 43 q 145 -54 167 -32 q 115 -76 124 -76 q 113 -76 114 -76 q 110 -75 111 -75 l 110 -76 q 63 -56 99 -76 q -11 -6 28 -35 q -81 52 -50 22 q -111 101 -111 82 q -95 190 -111 142 q -56 288 -79 238 q -5 388 -32 338 q 46 482 22 438 q 85 562 69 526 q 101 621 101 597 q 151 604 118 621 q 218 563 185 588 q 276 513 251 539 q 301 467 301 486 q 280 414 301 450 q 229 326 258 378 q 170 210 200 274 q 124 75 140 146 q 181 136 146 92 q 257 237 217 181 q 339 355 297 293 q 415 470 381 417 q 472 560 449 524 q 499 604 494 597 l 499 606 q 541 588 507 604 q 610 550 575 572 q 672 503 646 528 q 689 461 697 479 q 667 404 683 450 q 628 288 651 358 q 573 129 604 218 q 506 -54 542 40 q 549 -52 528 -53 q 593 -51 569 -51 m 46 -606 q 74 -580 56 -606 q 115 -509 92 -554 q 165 -402 138 -464 q 222 -268 193 -340 q 74 -349 131 -297 q 17 -464 17 -400 q 20 -540 17 -512 q 28 -583 24 -568 q 38 -601 33 -597 q 46 -606 43 -606 z "},"z":{"ha":651,"x_min":-96,"x_max":646,"o":"m 293 138 q 508 62 426 110 q 614 -33 590 14 q 633 -95 626 -58 q 642 -169 640 -132 q 639 -239 643 -207 q 626 -286 635 -271 q 601 -294 617 -301 q 567 -244 586 -286 q 505 -168 547 -203 q 408 -107 463 -133 q 290 -63 353 -81 q 161 -38 226 -46 q 35 -33 96 -31 q -75 -51 -26 -36 q -85 -61 -83 -54 q -90 -67 -87 -68 q -95 -37 -94 -65 q -95 22 -96 -10 q -91 81 -94 54 q -83 111 -87 108 q -47 129 -60 122 q -10 140 -35 136 q 67 194 22 161 q 163 267 113 226 q 265 357 213 308 q 364 458 318 406 q 317 457 335 458 q 283 453 299 456 q 249 448 267 451 q 204 438 232 444 q 169 384 182 407 q 163 354 157 361 q 126 360 156 350 q 65 388 97 371 q 7 422 32 404 q -15 453 -18 440 q 3 479 -12 460 q 40 523 18 499 q 88 574 63 547 q 135 622 114 600 q 171 660 157 644 q 186 678 185 675 q 212 677 188 682 q 265 663 236 672 q 316 644 293 654 q 338 631 339 635 l 336 629 q 335 628 336 628 q 335 626 335 628 q 431 635 383 632 q 515 640 478 639 q 578 640 553 640 q 611 635 604 639 q 635 596 628 626 q 644 533 642 565 q 644 476 646 500 q 643 456 643 451 q 612 410 643 444 q 531 331 581 376 q 418 234 481 285 q 293 138 356 183 z "},"c":{"ha":649,"x_min":-65,"x_max":735,"o":"m 672 453 q 688 448 675 453 q 712 433 700 443 q 729 411 724 424 q 725 383 735 399 q 625 227 676 308 q 522 78 574 146 q 417 -33 469 11 q 315 -78 365 -78 q 186 -68 253 -78 q 63 -30 119 -58 q -29 49 7 -1 q -65 181 -65 99 q -24 385 -65 292 q 80 545 17 478 q 219 650 143 613 q 365 688 296 688 q 432 681 403 688 q 481 663 461 674 q 528 651 501 663 q 574 603 556 639 q 583 532 588 572 q 565 454 579 492 q 533 388 551 417 q 501 353 514 360 q 483 344 497 350 q 455 335 469 339 q 427 328 440 331 q 411 333 414 326 q 443 393 428 361 q 467 456 456 421 q 483 528 479 490 q 467 540 475 535 q 447 544 458 544 q 337 519 390 544 q 242 444 283 493 q 175 326 200 396 q 150 167 150 256 q 160 96 150 126 q 187 45 171 65 q 220 15 203 25 q 251 4 238 4 q 348 38 299 4 q 444 121 397 71 q 531 228 490 171 q 602 336 571 286 q 651 419 633 386 q 672 453 669 453 z "},"A":{"ha":1103,"x_min":-18,"x_max":1096,"o":"m 960 499 q 1025 449 994 481 q 1073 384 1056 418 q 1093 318 1090 350 q 1075 265 1096 286 q 1031 306 1056 288 q 983 335 1010 321 q 928 356 956 350 q 893 163 908 258 q 874 -17 878 67 q 881 -169 871 -101 q 924 -275 892 -236 q 809 -294 871 -300 q 694 -267 747 -289 q 607 -213 642 -244 q 572 -154 572 -182 q 585 -98 572 -142 q 617 12 597 -54 q 663 161 638 78 q 714 335 688 244 q 606 319 663 328 q 494 301 550 310 q 405 134 447 214 q 326 -7 363 54 q 261 -104 289 -68 q 215 -140 233 -140 q 139 -135 179 -140 q 63 -108 99 -129 q 5 -44 28 -86 q -18 68 -18 -3 q -15 70 -18 76 q -1 53 -11 64 q 23 31 8 42 q 61 19 38 19 q 86 38 68 19 q 131 90 104 57 q 191 169 157 124 q 264 269 225 215 q 204 265 226 265 q 124 290 165 265 q 51 349 82 315 q 7 419 19 383 q 15 475 -6 454 q 60 451 35 461 q 108 436 81 443 q 171 429 136 429 q 256 437 196 429 q 394 456 317 444 q 502 613 449 533 q 603 763 556 692 q 691 896 651 835 q 758 997 731 957 q 533 976 639 1011 q 350 878 426 942 q 235 734 274 815 q 211 574 196 653 q 179 573 207 567 q 117 599 151 579 q 53 652 83 618 q 13 738 22 686 q 29 841 3 789 q 120 941 56 893 q 290 1029 185 989 q 542 1099 394 1069 q 646 1113 600 1110 q 725 1116 692 1117 q 778 1110 758 1115 q 804 1100 799 1106 q 819 1080 808 1094 q 840 1047 831 1065 q 901 1019 865 1036 q 968 982 936 1001 q 1022 944 1000 963 q 1044 913 1044 926 q 1038 846 1044 888 q 1019 750 1031 804 q 992 632 1007 696 q 960 499 976 568 m 597 485 q 683 497 642 492 q 761 507 725 503 q 798 667 782 589 q 824 813 814 744 q 711 669 768 754 q 597 485 654 583 z "},"B":{"ha":1069,"x_min":-64,"x_max":1147,"o":"m 1147 757 q 1121 665 1147 711 q 1049 576 1094 618 q 946 494 1004 533 q 824 425 888 456 q 876 381 850 406 q 920 328 901 357 q 951 265 939 299 q 963 197 963 232 q 938 108 963 158 q 871 7 913 58 q 773 -94 829 -44 q 654 -181 717 -143 q 526 -243 592 -219 q 399 -267 460 -267 q 289 -249 336 -267 q 206 -202 242 -231 q 147 -138 171 -174 q 108 -69 122 -103 q 87 -6 93 -35 q 81 38 81 22 q 90 72 81 60 q 110 88 99 85 q 134 88 122 92 q 153 78 146 85 q 154 71 157 72 q 147 67 151 69 q 139 60 143 65 q 135 40 135 54 q 158 -17 135 8 q 250 -43 181 -43 q 353 -30 294 -43 q 474 6 411 -17 q 596 58 536 28 q 703 124 656 89 q 779 196 750 158 q 808 269 808 233 q 774 337 808 314 q 678 360 740 360 l 664 360 q 556 331 607 340 q 465 321 506 321 q 421 332 440 321 q 386 360 401 343 q 331 233 353 297 q 310 106 310 169 q 291 81 310 85 q 244 85 272 78 q 184 110 217 93 q 124 146 151 126 q 77 185 96 165 q 58 221 58 206 q 83 279 58 236 q 145 382 108 322 q 226 513 182 442 q 306 654 269 583 q 368 789 343 725 q 393 899 393 853 q 410 910 393 911 q 454 901 428 910 q 510 874 481 892 q 567 836 540 857 q 610 792 593 815 q 628 747 628 768 q 615 708 628 732 q 579 651 601 683 q 529 580 557 618 q 472 499 501 542 q 617 527 542 500 q 754 601 692 554 q 857 713 817 649 q 897 854 897 778 q 876 933 897 900 q 826 988 856 967 q 765 1019 797 1008 q 707 1029 732 1029 q 522 1005 606 1029 q 373 940 439 981 q 259 847 307 899 q 179 741 211 796 q 131 633 147 686 q 115 538 115 581 q 102 527 115 522 q 69 549 89 532 q 26 593 49 567 q -17 648 3 619 q -51 703 -37 676 q -64 747 -64 729 q -45 796 -64 761 q 13 874 -26 831 q 111 966 51 918 q 253 1053 171 1014 q 440 1117 335 1092 q 674 1143 544 1143 q 848 1119 763 1143 q 1000 1048 933 1096 q 1107 927 1067 1000 q 1147 757 1147 854 z "},"C":{"ha":1128,"x_min":-54,"x_max":1224,"o":"m 811 533 q 846 559 819 542 q 906 603 872 576 q 976 665 940 631 q 1038 740 1011 699 q 1003 771 1022 760 q 964 782 985 782 q 805 763 889 782 q 639 703 721 743 q 481 604 557 664 q 348 466 406 544 q 256 289 290 388 q 222 72 222 190 q 235 13 222 35 q 267 -22 247 -10 q 312 -36 286 -33 q 364 -39 338 -39 q 543 -9 460 -39 q 696 66 626 21 q 820 163 765 111 q 914 260 875 215 q 975 335 953 306 q 1001 365 997 365 q 1016 353 1008 365 q 1030 325 1024 342 q 1040 290 1036 308 q 1040 261 1043 272 q 994 147 1028 208 q 911 26 960 86 q 803 -91 863 -35 q 682 -190 744 -147 q 557 -258 619 -232 q 440 -283 494 -283 q 363 -267 411 -283 q 260 -222 315 -251 q 149 -149 206 -192 q 48 -52 93 -107 q -26 67 3 3 q -54 206 -54 132 q -5 427 -54 321 q 124 625 44 533 q 303 792 203 717 q 503 920 403 867 q 694 1003 603 974 q 847 1032 785 1032 q 927 1014 890 1032 q 993 967 964 996 q 1042 903 1022 939 q 1075 833 1063 868 q 1079 867 1079 850 q 1101 871 1079 876 q 1151 846 1124 865 q 1201 792 1178 826 q 1224 708 1224 757 q 1191 625 1224 667 q 1113 549 1158 583 q 1017 493 1067 515 q 931 471 967 471 q 891 478 914 471 q 848 495 868 485 q 817 517 828 506 q 811 533 806 528 z "},"U":{"ha":1383,"x_min":-162,"x_max":1454,"o":"m 1446 844 q 1414 774 1438 826 q 1360 648 1390 722 q 1295 482 1329 574 q 1233 294 1261 390 q 1186 101 1204 197 q 1168 -78 1168 6 q 1179 -156 1168 -121 q 1207 -217 1190 -192 q 1244 -257 1224 -243 q 1285 -269 1265 -271 q 1294 -276 1293 -269 q 1287 -293 1294 -283 q 1263 -310 1279 -303 q 1219 -318 1246 -318 q 1122 -297 1176 -318 q 1018 -241 1067 -275 q 936 -165 969 -207 q 903 -82 903 -122 q 920 71 903 -4 q 963 219 938 146 q 1016 367 988 293 q 1068 515 1044 440 q 988 371 1026 447 q 911 220 950 294 q 833 78 872 146 q 751 -42 794 10 q 661 -125 708 -94 q 560 -156 614 -156 q 519 -137 536 -156 q 466 -110 500 -133 q 399 -57 432 -87 q 340 7 365 -26 q 315 67 315 40 q 329 185 315 117 q 365 328 343 253 q 416 484 388 404 q 472 639 444 564 q 526 779 500 714 q 569 892 551 844 q 507 897 547 897 q 394 877 454 897 q 274 826 333 857 q 158 757 214 794 q 60 684 103 719 q -8 620 18 649 q -33 579 -33 592 q -30 553 -33 560 q -22 544 -26 546 q -13 544 -18 543 q -6 540 -8 544 q -9 527 -1 533 q -31 517 -17 521 q -60 510 -44 513 q -86 507 -75 507 q -114 535 -97 507 q -143 607 -131 564 q -159 700 -156 650 q -150 793 -162 750 q -100 853 -140 821 q -2 917 -60 885 q 126 978 56 949 q 263 1031 196 1008 q 390 1067 331 1053 q 489 1081 450 1081 q 563 1059 525 1081 q 628 1011 600 1038 q 678 974 647 1000 q 740 917 710 949 q 791 852 769 885 q 813 797 813 819 q 781 707 813 772 q 707 549 749 642 q 626 343 665 457 q 571 104 586 229 q 619 75 585 60 q 700 146 653 90 q 803 288 747 201 q 914 472 858 375 q 1203 1021 1044 700 l 1203 1017 q 1206 1019 1206 1019 l 1206 1021 q 1234 1013 1211 1021 q 1286 990 1257 1004 q 1347 958 1315 976 q 1403 921 1379 940 q 1441 881 1428 901 q 1446 844 1454 861 z "},"V":{"ha":1394,"x_min":-81,"x_max":1775,"o":"m 1765 906 q 1755 908 1763 903 q 1736 918 1747 913 q 1713 924 1725 924 q 1688 914 1700 925 q 1506 724 1592 824 q 1346 524 1421 625 q 1206 324 1271 424 q 1089 136 1142 225 q 871 -282 965 -74 q 827 -281 856 -283 q 769 -270 799 -279 q 713 -242 739 -261 q 678 -190 688 -224 q 586 -128 626 -157 q 523 -77 551 -103 q 493 -36 494 -51 q 505 46 492 -15 q 539 190 518 107 q 585 369 560 272 q 633 556 610 465 q 676 725 657 647 q 701 847 694 803 l 671 847 q 555 827 618 847 q 428 774 492 807 q 306 703 365 742 q 201 626 247 664 q 128 555 156 588 q 101 504 101 522 q 108 479 101 489 q 124 463 115 469 q 141 451 133 456 q 151 444 149 447 q 112 424 136 428 q 62 422 88 419 q 13 431 36 424 q -21 447 -10 439 q -45 485 -32 456 q -67 554 -58 515 q -78 635 -76 593 q -71 711 -81 678 q -15 765 -64 733 q 107 832 35 797 q 265 901 179 867 q 430 964 350 936 q 574 1009 510 992 q 668 1026 638 1026 q 706 1015 686 1026 q 742 983 725 1003 q 791 959 754 978 q 866 916 828 940 q 933 867 904 892 q 960 825 961 842 q 940 750 957 808 q 900 610 924 692 q 849 434 876 529 q 794 249 821 339 q 747 84 768 160 q 717 -33 726 8 q 842 190 772 75 q 988 418 913 306 q 1140 636 1064 531 q 1287 832 1217 742 q 1415 992 1357 922 q 1513 1101 1474 1061 q 1557 1103 1529 1111 q 1616 1076 1585 1096 q 1678 1031 1647 1057 q 1732 981 1710 1006 q 1765 935 1754 956 q 1765 906 1775 914 z "},"W":{"ha":2057,"x_min":-36,"x_max":2436,"o":"m 2425 1021 q 2412 1019 2422 1018 q 2384 1017 2401 1021 q 2342 1000 2367 1013 q 2286 958 2318 988 q 2194 851 2244 922 q 2089 689 2143 781 q 1980 492 2035 597 q 1874 282 1925 386 q 1629 -254 1754 36 q 1590 -254 1614 -256 q 1540 -246 1567 -253 q 1487 -226 1514 -239 q 1438 -190 1460 -212 q 1413 -176 1432 -189 q 1371 -146 1394 -164 q 1321 -105 1347 -128 q 1272 -60 1294 -82 q 1235 -19 1250 -39 q 1221 14 1221 1 q 1229 60 1221 26 q 1251 140 1238 93 q 1281 242 1264 186 q 1315 353 1297 297 q 1411 643 1357 483 q 1320 520 1371 597 q 1215 355 1269 443 q 1108 177 1161 267 q 1013 15 1056 88 q 940 -104 969 -58 q 901 -150 910 -150 l 899 -150 q 813 -117 863 -150 q 719 -39 764 -83 q 642 49 674 6 q 610 113 610 92 q 642 260 610 169 q 718 459 674 351 q 808 683 763 567 q 883 911 854 800 q 851 928 869 924 q 813 933 832 933 q 716 910 781 933 q 572 850 651 886 q 410 769 493 814 q 260 683 328 725 q 148 605 192 640 q 104 553 104 569 q 114 503 104 518 q 128 481 124 488 q 113 472 131 474 q 72 474 96 471 q 24 483 47 476 q -10 497 0 489 q -30 544 -24 511 q -35 617 -36 576 q -28 701 -35 657 q -11 783 -22 746 q 50 842 -4 807 q 184 914 104 876 q 358 988 264 951 q 541 1055 453 1025 q 701 1103 629 1085 q 806 1121 772 1121 q 847 1113 826 1121 q 888 1093 868 1106 q 923 1065 907 1081 q 950 1035 939 1050 q 997 1005 961 1026 q 1073 957 1033 983 q 1144 903 1113 931 q 1175 858 1175 876 q 1154 798 1175 846 q 1101 681 1133 750 q 1031 526 1069 611 q 956 353 992 440 q 893 185 921 267 q 854 39 865 103 q 903 102 872 58 q 971 204 933 146 q 1051 331 1008 263 q 1139 468 1094 400 q 1226 599 1183 536 q 1307 712 1269 663 q 1374 790 1344 761 q 1421 819 1403 819 q 1483 799 1443 819 q 1561 748 1524 778 q 1624 686 1599 718 q 1644 632 1650 654 q 1627 570 1640 617 q 1595 461 1614 524 q 1554 326 1576 399 q 1511 184 1532 253 q 1472 56 1490 115 q 1444 -36 1454 -3 q 1628 342 1536 156 q 1806 691 1719 529 q 1972 980 1893 853 q 2117 1179 2050 1107 q 2177 1208 2142 1207 q 2251 1196 2213 1210 q 2325 1156 2289 1182 q 2387 1104 2361 1131 q 2424 1054 2413 1078 q 2425 1021 2436 1031 z "},"I":{"ha":863,"x_min":-62,"x_max":918,"o":"m 600 57 q 622 36 610 56 q 647 -10 635 17 q 666 -62 658 -36 q 672 -101 674 -87 q 637 -121 671 -111 q 552 -144 603 -131 q 442 -174 501 -157 q 332 -212 383 -190 q 244 -264 281 -235 q 206 -331 208 -293 q 198 -340 204 -347 q 185 -312 192 -333 q 172 -262 178 -292 q 163 -203 165 -233 q 163 -149 160 -174 q 178 -115 165 -125 q 237 -80 193 -103 q 335 -32 281 -57 q 308 4 318 -14 q 299 40 299 22 q 320 99 299 50 q 375 223 342 149 q 449 389 408 297 q 529 574 490 481 q 601 758 568 668 q 650 918 633 847 q 573 892 615 913 q 485 843 531 871 q 394 784 440 815 q 309 726 349 753 q 238 683 269 700 q 188 665 206 665 q 112 686 158 665 q 24 735 65 707 q -40 794 -17 764 q -42 846 -62 825 q 37 826 -15 819 q 154 856 89 832 q 292 916 219 881 q 431 984 364 951 q 551 1040 497 1017 q 633 1064 604 1064 q 660 1056 644 1064 q 692 1037 676 1049 q 722 1010 708 1025 q 744 981 736 994 q 801 947 771 965 q 858 911 832 929 q 901 877 883 893 q 918 851 918 861 q 898 810 918 849 q 846 708 878 771 q 775 565 814 646 q 699 397 736 485 q 629 222 661 310 q 579 56 597 133 q 600 57 594 58 z "},"H":{"ha":1522,"x_min":-85,"x_max":1574,"o":"m 1364 597 q 1428 585 1397 604 q 1487 532 1460 565 q 1533 459 1514 499 q 1563 388 1553 419 q 1572 340 1574 356 q 1553 336 1569 324 q 1508 358 1526 350 q 1462 369 1489 367 q 1392 369 1435 372 q 1275 361 1350 367 q 1210 174 1242 268 q 1153 -6 1178 79 q 1115 -165 1129 -92 q 1100 -289 1100 -237 q 1104 -351 1100 -329 q 1111 -382 1108 -372 q 1110 -393 1114 -392 q 1093 -394 1107 -394 q 1060 -387 1083 -394 q 1007 -365 1036 -379 q 946 -331 978 -350 q 888 -287 914 -311 q 844 -237 861 -264 q 828 -182 828 -211 q 843 -127 828 -172 q 883 -12 858 -82 q 942 147 908 58 q 1011 335 975 236 q 838 310 924 324 q 672 285 751 297 q 628 142 647 211 q 597 10 608 72 q 583 -105 586 -53 q 592 -194 581 -157 q 501 -169 549 -194 q 412 -108 453 -144 q 344 -31 371 -72 q 318 42 318 10 q 340 106 318 53 q 399 238 363 158 q 328 226 357 231 q 289 218 300 221 q 141 225 199 206 q 49 276 83 244 q -1 341 14 308 q -17 389 -15 374 q -17 419 -19 404 q -12 446 -15 435 q -4 472 -8 460 q 86 441 33 451 q 203 428 139 431 q 340 431 267 426 q 492 444 413 435 q 553 584 522 513 q 610 725 583 656 q 660 860 638 794 q 699 982 683 925 q 613 953 660 976 q 515 899 565 931 q 415 833 465 868 q 319 769 364 799 q 240 721 275 740 q 185 701 204 701 q 133 712 164 701 q 68 740 101 722 q 3 779 35 757 q -49 824 -28 801 q -77 866 -69 846 q -69 901 -85 886 q 18 879 -40 872 q 149 913 76 886 q 301 978 221 939 q 454 1054 381 1018 q 587 1116 528 1090 q 676 1142 646 1142 q 738 1115 703 1142 q 794 1089 758 1108 q 863 1046 829 1069 q 922 999 897 1022 q 947 960 947 975 q 929 917 947 957 q 882 811 911 876 q 817 660 853 746 q 744 482 781 575 q 922 515 835 497 q 1089 547 1008 532 q 1151 725 1122 639 q 1203 884 1181 811 q 1238 1012 1225 957 q 1251 1094 1251 1067 q 1269 1098 1251 1104 q 1313 1076 1286 1092 q 1371 1040 1340 1061 q 1428 996 1401 1018 q 1473 953 1456 974 q 1490 921 1490 933 q 1481 892 1490 918 q 1453 824 1471 867 q 1413 723 1436 781 q 1364 597 1390 665 z "},"F":{"ha":1122,"x_min":21,"x_max":1507,"o":"m 1338 1135 q 1413 1111 1382 1135 q 1464 1053 1444 1088 q 1493 977 1483 1018 q 1505 901 1503 936 q 1501 843 1507 867 q 1486 819 1496 819 q 1460 840 1482 819 q 1404 883 1439 860 q 1324 927 1369 907 q 1228 947 1279 947 q 1013 919 1126 947 q 781 853 899 890 q 710 723 758 813 q 607 511 663 633 q 781 563 692 536 q 971 604 871 589 q 988 601 971 610 q 1026 576 1006 593 q 1065 537 1047 558 q 1082 496 1082 515 q 1068 465 1082 488 q 1035 411 1054 442 q 993 346 1015 381 q 955 280 971 311 q 933 224 939 249 q 938 188 926 199 q 933 169 954 171 q 881 181 913 167 q 819 224 849 194 q 790 301 790 254 q 801 343 790 319 q 832 394 813 367 q 760 382 799 390 q 682 363 722 374 q 602 339 642 351 q 525 315 563 326 q 474 164 497 242 q 433 8 450 86 q 407 -149 415 -71 q 401 -300 399 -226 q 308 -282 358 -300 q 214 -235 257 -264 q 142 -172 171 -207 q 113 -104 113 -137 q 124 -65 113 -96 q 157 16 136 -33 q 205 128 178 65 q 263 264 232 192 q 182 290 210 269 q 142 335 154 310 q 127 383 129 360 q 124 419 125 407 q 123 450 121 435 q 128 479 125 465 q 138 510 132 494 q 240 470 189 482 q 343 460 290 458 q 401 609 374 535 q 453 753 429 683 q 328 728 389 738 q 213 718 268 718 q 145 737 175 718 q 92 783 115 756 q 53 843 68 811 q 29 903 38 875 q 21 949 21 931 q 29 968 21 968 q 38 962 35 968 q 50 949 42 956 q 75 935 58 942 q 125 929 92 929 q 328 936 233 929 q 507 954 424 943 q 512 990 510 974 q 514 1021 514 1007 q 581 1010 542 1021 q 658 981 619 999 q 864 1030 771 1003 q 1038 1081 957 1057 q 1192 1119 1119 1104 q 1338 1135 1265 1135 z "},"E":{"ha":1200,"x_min":-57,"x_max":1401,"o":"m 1400 872 q 1383 844 1400 864 q 1343 799 1367 825 q 1292 743 1319 772 q 1245 687 1265 714 q 1215 638 1225 660 q 1217 606 1206 617 q 1217 588 1233 589 q 1174 600 1200 586 q 1124 643 1149 614 q 1100 718 1100 672 q 1129 790 1100 744 q 1197 886 1158 836 l 1144 886 q 916 860 1038 886 q 668 801 794 835 q 594 675 640 754 q 499 493 547 596 q 610 524 556 507 q 712 555 664 540 q 801 578 760 569 q 875 588 843 588 q 916 570 894 588 q 957 527 938 553 q 992 473 976 501 q 1014 424 1007 444 q 1018 394 1021 403 q 999 397 1015 385 q 901 403 968 408 q 751 382 833 397 q 580 346 668 367 q 421 308 492 325 q 365 138 389 225 q 328 -40 340 50 q 504 -19 414 -40 q 678 28 594 3 q 835 75 763 54 q 956 96 907 96 q 1000 78 975 96 q 1049 34 1025 60 q 1093 -21 1072 8 q 1126 -72 1114 -50 q 1138 -103 1138 -93 q 1121 -100 1138 -112 q 1035 -94 1093 -90 q 904 -112 978 -99 q 750 -146 831 -126 q 598 -183 669 -165 q 472 -215 526 -201 q 394 -232 417 -229 q 301 -232 340 -239 q 232 -210 261 -225 q 184 -174 203 -194 q 153 -133 165 -153 q 106 -108 128 -119 q 68 -86 85 -97 q 42 -62 51 -75 q 33 -31 33 -49 q 44 2 33 -24 q 72 68 54 28 q 113 160 89 108 q 164 272 136 213 q 94 295 118 278 q 60 333 71 313 q 47 375 49 354 q 43 407 44 396 q 42 437 40 422 q 47 465 44 451 q 57 496 51 481 q 146 463 99 472 q 243 453 193 453 q 301 591 272 522 q 354 726 329 660 q 238 708 294 715 q 131 700 182 700 q 65 718 94 700 q 12 764 35 736 q -26 823 -11 792 q -49 882 -42 854 q -57 928 -57 910 q -49 946 -57 946 q -40 940 -43 946 q -28 926 -36 933 q -4 913 -21 919 q 44 907 13 907 q 244 914 151 907 q 419 932 336 921 q 435 1038 435 997 q 456 1031 440 1038 q 492 1015 471 1025 q 537 990 513 1004 q 585 961 561 976 q 781 1010 692 983 q 947 1058 869 1036 q 1096 1095 1025 1081 q 1236 1110 1167 1110 q 1318 1086 1286 1110 q 1369 1028 1350 1063 q 1394 957 1388 994 q 1399 893 1401 919 q 1400 872 1400 886 z "},"L":{"ha":982,"x_min":26,"x_max":1853,"o":"m 1524 -150 q 1660 -173 1603 -149 q 1756 -234 1717 -197 q 1816 -312 1794 -271 q 1845 -387 1838 -354 q 1847 -435 1853 -419 q 1828 -437 1842 -451 q 1718 -394 1792 -411 q 1547 -365 1644 -376 q 1335 -346 1449 -353 q 1107 -337 1222 -339 q 883 -335 992 -335 q 687 -336 775 -335 q 540 -339 599 -337 q 464 -340 481 -340 q 322 -317 378 -342 q 234 -260 267 -293 q 189 -194 201 -226 q 176 -147 176 -161 q 183 -118 176 -133 q 196 -92 189 -103 q 215 -65 204 -78 q 301 -107 250 -90 q 418 -133 353 -124 q 383 -91 396 -112 q 371 -49 371 -69 q 395 22 371 -37 q 458 173 419 82 q 542 375 496 264 q 633 599 589 486 q 715 819 678 713 q 771 1004 751 925 q 690 976 735 999 q 597 925 644 954 q 501 863 549 896 q 410 801 453 829 q 335 756 368 774 q 282 738 301 738 q 232 748 261 738 q 171 774 203 758 q 109 811 139 790 q 60 853 79 832 q 33 894 40 875 q 40 929 26 914 q 124 908 68 901 q 248 940 179 914 q 393 1002 317 965 q 540 1074 469 1039 q 666 1133 610 1108 q 753 1158 722 1158 q 781 1151 764 1158 q 815 1131 797 1143 q 847 1102 832 1118 q 869 1071 861 1086 q 928 1035 897 1054 q 983 997 958 1015 q 1025 961 1008 978 q 1042 935 1042 944 q 1013 871 1042 931 q 941 718 985 811 q 846 508 897 625 q 749 272 794 390 q 673 42 704 153 q 638 -150 642 -69 q 879 -153 754 -153 q 1122 -154 1004 -154 q 1344 -153 1240 -154 q 1524 -150 1449 -151 z "},"T":{"ha":775,"x_min":-19,"x_max":1808,"o":"m 1421 1115 q 1569 1109 1504 1128 q 1680 1056 1633 1090 q 1755 979 1726 1021 q 1796 904 1783 938 q 1805 852 1808 871 q 1785 847 1801 833 q 1696 874 1753 865 q 1565 883 1639 882 q 1404 878 1492 883 q 1224 863 1317 872 q 1034 842 1131 854 q 846 815 938 829 q 781 703 818 769 q 703 554 743 636 q 624 378 663 472 q 555 184 585 285 q 509 -20 525 83 q 497 -225 493 -124 q 401 -206 453 -225 q 304 -158 349 -187 q 231 -94 260 -129 q 201 -26 201 -60 q 217 22 201 -17 q 260 122 233 61 q 322 259 288 182 q 394 421 357 336 q 468 594 432 506 q 535 764 504 682 q 390 739 447 749 q 315 726 332 729 q 160 733 224 714 q 59 783 97 751 q 3 847 21 814 q -17 894 -15 879 q -15 926 -19 910 q -4 956 -11 942 q 14 988 3 971 q 119 953 57 964 q 258 941 182 942 q 421 948 333 940 q 600 968 508 956 q 613 1032 608 1003 q 618 1085 618 1061 q 643 1078 625 1085 q 684 1058 661 1071 q 734 1030 707 1046 q 786 997 761 1014 q 968 1031 878 1014 q 1140 1065 1058 1049 q 1294 1094 1222 1081 q 1421 1115 1365 1107 z "},"K":{"ha":1157,"x_min":-25,"x_max":1539,"o":"m 1493 -340 q 1538 -353 1536 -340 q 1514 -381 1539 -365 q 1444 -412 1489 -397 q 1348 -433 1399 -428 q 1247 -427 1297 -437 q 1164 -382 1197 -417 q 1076 -276 1125 -343 q 964 -124 1028 -210 q 819 60 900 -39 q 632 260 738 158 q 592 72 607 171 q 576 -137 576 -26 q 517 -115 557 -137 q 436 -62 476 -93 q 366 -1 396 -32 q 336 50 336 31 q 346 113 336 75 q 372 197 356 150 q 409 299 388 244 q 454 414 431 354 q 442 424 447 419 q 429 433 436 429 q 378 450 404 450 q 327 443 351 450 q 285 427 303 436 q 263 417 268 418 q 260 429 257 415 q 274 465 264 443 q 301 513 285 488 q 337 560 317 538 q 380 597 357 582 q 426 611 403 611 q 470 585 449 599 q 514 558 492 572 q 602 788 561 676 q 663 986 643 899 q 526 1008 593 1011 q 398 984 458 1004 q 286 931 338 964 q 197 864 235 899 q 139 798 160 829 q 118 749 118 767 q 121 738 118 742 q 127 730 124 733 q 132 724 131 726 q 132 718 133 722 q 122 715 132 717 q 99 712 111 713 q 74 710 86 711 q 58 710 63 710 q 33 724 47 711 q 6 760 18 738 q -16 814 -7 782 q -25 888 -25 846 q 19 985 -25 936 q 133 1075 63 1035 q 294 1141 204 1115 q 479 1167 385 1167 q 563 1156 526 1167 q 628 1128 600 1144 q 674 1092 656 1111 q 704 1058 693 1074 q 749 1013 725 1042 q 793 951 772 983 q 828 891 814 919 q 842 846 842 863 q 827 765 842 810 q 789 667 813 721 q 920 762 849 711 q 1058 865 992 813 q 1180 972 1125 918 q 1263 1075 1235 1025 q 1281 1074 1268 1085 q 1306 1039 1293 1063 q 1331 983 1319 1015 q 1346 916 1342 950 q 1344 850 1350 882 q 1317 797 1338 818 q 1249 748 1296 776 q 1143 688 1203 719 q 1018 621 1083 656 q 896 553 953 586 q 797 490 839 519 q 743 438 756 460 q 732 418 736 426 q 724 401 728 410 q 904 234 819 321 q 1063 65 989 147 q 1200 -90 1136 -17 q 1317 -219 1264 -164 q 1415 -308 1371 -275 q 1493 -340 1458 -340 z "},"S":{"ha":1183,"x_min":-14,"x_max":1347,"o":"m 1188 935 q 1222 924 1203 935 q 1260 899 1242 914 q 1297 865 1279 883 q 1326 831 1314 846 q 1342 805 1338 815 q 1342 794 1347 794 q 1245 769 1301 794 q 1138 704 1189 743 q 1049 619 1086 665 q 1007 532 1011 574 q 990 542 1004 529 q 959 576 975 554 q 933 624 943 597 q 931 681 922 651 q 976 751 942 710 q 1050 833 1010 793 q 1010 840 1029 840 q 901 819 963 840 q 774 761 840 797 q 638 678 707 725 q 503 581 568 631 q 381 480 438 531 q 281 386 324 429 q 213 310 238 343 q 188 264 188 278 q 433 375 311 326 q 542 416 485 396 q 656 452 599 436 q 769 478 714 468 q 874 488 825 488 q 965 456 922 488 q 1038 381 1007 424 q 1088 298 1069 339 q 1106 239 1106 257 q 1084 151 1106 203 q 1027 42 1063 99 q 946 -71 992 -15 q 852 -171 900 -126 q 758 -243 804 -215 q 674 -271 711 -271 q 606 -249 636 -271 q 553 -194 576 -226 q 513 -122 529 -161 q 488 -51 497 -83 q 478 4 479 -18 q 485 26 478 26 q 499 3 489 13 q 523 -12 507 -6 q 567 -19 539 -19 q 644 3 601 -19 q 729 59 686 25 q 813 134 772 93 q 885 213 853 175 q 935 282 917 251 q 954 326 954 313 q 936 337 954 336 q 890 338 918 338 q 751 317 829 338 q 592 265 674 296 q 433 199 511 235 q 292 132 354 163 q 189 81 229 101 q 144 60 149 60 q 125 80 139 60 q 94 131 111 100 q 58 201 76 163 q 23 278 39 240 q -3 350 7 317 q -14 403 -14 383 q 19 506 -14 451 q 106 618 51 561 q 233 731 161 675 q 383 838 304 786 q 541 933 461 889 q 692 1009 621 976 q 819 1060 763 1042 q 908 1078 876 1078 q 966 1061 936 1078 q 1025 1019 996 1044 q 1081 963 1054 993 q 1129 904 1108 932 q 1163 926 1149 918 q 1188 935 1178 935 z "},"G":{"ha":1214,"x_min":-1,"x_max":1288,"o":"m 1188 415 q 1222 370 1204 399 q 1256 313 1240 342 q 1279 263 1271 285 q 1285 236 1288 240 q 1266 236 1282 235 q 1225 241 1250 238 q 1169 249 1200 244 q 1104 260 1138 254 q 1081 199 1101 243 q 1033 98 1061 156 q 974 -25 1006 40 q 916 -151 943 -90 q 872 -260 889 -211 q 854 -335 854 -310 q 858 -397 854 -375 q 865 -427 863 -418 q 864 -437 867 -436 q 847 -439 861 -439 q 801 -426 832 -439 q 738 -390 769 -414 q 683 -333 707 -367 q 658 -258 658 -300 q 674 -192 658 -233 q 713 -97 689 -150 q 569 -185 642 -151 q 435 -218 497 -218 q 362 -203 406 -218 q 269 -159 318 -187 q 173 -90 221 -131 q 86 5 125 -49 q 23 122 47 58 q -1 260 -1 186 q 44 481 -1 375 q 164 678 90 586 q 331 844 238 769 q 518 972 424 919 q 700 1054 613 1025 q 850 1083 788 1083 q 918 1072 888 1083 q 974 1040 949 1060 q 1018 995 999 1021 q 1051 940 1038 969 q 1069 949 1061 946 q 1082 953 1076 953 q 1135 939 1111 953 q 1175 905 1158 925 q 1203 860 1192 885 q 1219 816 1214 836 q 1225 782 1225 796 q 1219 768 1225 768 q 1133 745 1183 768 q 1038 688 1083 722 q 958 612 992 653 q 919 533 924 571 q 908 536 918 531 q 885 562 897 542 q 863 621 872 582 q 853 725 853 660 q 888 782 863 749 q 943 847 913 815 q 785 825 868 846 q 622 764 703 804 q 468 665 542 724 q 338 527 394 606 q 249 351 282 449 q 215 138 215 254 q 228 77 215 100 q 260 43 240 54 q 305 28 279 32 q 357 25 331 25 q 515 48 440 25 q 653 108 589 71 q 769 189 717 144 q 863 276 822 233 q 751 278 808 278 q 648 270 694 278 q 572 245 601 263 q 543 194 543 228 q 533 166 543 167 q 508 181 522 165 q 480 224 494 196 q 457 283 465 251 q 451 343 449 314 q 471 390 453 372 q 562 415 501 404 q 697 434 622 426 q 853 445 772 442 q 1003 447 933 449 q 1122 438 1072 446 q 1188 415 1172 429 z "},"D":{"ha":1301,"x_min":-50,"x_max":1286,"o":"m 792 1074 q 993 1028 901 1074 q 1149 915 1085 983 q 1250 765 1214 846 q 1286 613 1286 685 q 1247 449 1286 542 q 1141 260 1208 357 q 983 69 1074 163 q 790 -97 893 -24 q 575 -215 686 -169 q 356 -260 464 -260 q 274 -232 322 -260 q 183 -162 226 -204 q 108 -74 139 -121 q 76 10 76 -28 q 96 72 76 50 q 129 89 115 93 q 132 81 133 86 q 131 68 131 76 q 133 47 131 60 q 146 18 135 35 q 170 -2 156 6 q 202 -15 185 -10 q 237 -22 219 -19 q 268 -24 254 -24 l 290 -24 q 256 3 274 -11 q 224 31 239 17 q 199 58 208 44 q 189 82 189 71 q 210 142 189 99 q 264 247 232 186 q 334 378 296 307 q 404 522 372 450 q 458 659 436 593 q 479 774 479 725 q 495 786 479 786 q 535 776 511 786 q 587 747 558 765 q 639 706 615 728 q 678 659 663 683 q 694 613 694 635 q 675 560 694 597 q 625 472 656 522 q 558 360 594 421 q 490 235 522 299 q 434 111 458 172 q 403 -1 410 50 q 560 68 481 22 q 715 172 640 114 q 855 297 789 231 q 969 431 921 364 q 1046 559 1018 497 q 1074 669 1074 621 q 1054 761 1074 715 q 1001 844 1035 807 q 925 905 968 882 q 835 928 882 928 q 560 880 681 928 q 356 760 439 832 q 228 607 272 689 q 185 457 185 525 q 167 447 185 449 q 124 452 150 446 q 67 474 97 458 q 11 514 38 489 q -33 574 -15 539 q -50 656 -50 608 q -31 708 -50 671 q 31 791 -11 744 q 138 888 72 838 q 298 979 204 938 q 514 1047 392 1021 q 792 1074 636 1074 z "},"P":{"ha":1157,"x_min":-7,"x_max":1326,"o":"m 414 982 q 434 997 414 997 q 485 984 454 996 q 551 952 515 972 q 617 906 586 932 q 667 853 647 881 q 688 800 688 825 q 662 709 688 775 q 597 553 636 643 q 513 357 558 464 q 429 142 468 250 q 365 -66 390 35 q 339 -244 339 -167 q 317 -274 339 -269 q 263 -269 296 -279 q 193 -240 231 -260 q 123 -197 156 -221 q 69 -149 90 -172 q 47 -107 47 -125 q 68 -40 47 -93 q 123 93 89 14 q 199 269 157 172 q 281 464 240 365 q 358 656 322 563 q 415 822 393 750 q 441 938 438 894 q 421 982 444 982 l 414 982 m -7 744 q 15 803 -7 761 q 81 897 36 844 q 194 1006 125 950 q 356 1109 263 1063 q 569 1186 450 1156 q 836 1217 689 1217 q 1028 1189 939 1217 q 1184 1103 1118 1161 q 1288 959 1250 1046 q 1326 756 1326 872 q 1290 628 1326 692 q 1192 506 1253 564 q 1055 399 1132 449 q 897 312 978 349 q 738 254 817 275 q 599 233 660 233 q 520 259 550 233 q 472 319 490 285 q 448 388 454 354 q 442 438 442 422 q 451 449 442 453 q 481 433 461 444 q 531 410 501 422 q 599 399 560 399 q 653 418 611 399 q 749 471 694 438 q 865 550 804 504 q 976 649 925 596 q 1060 758 1026 701 q 1093 872 1093 815 q 1069 967 1093 928 q 1012 1033 1046 1007 q 940 1070 978 1058 q 875 1082 903 1082 q 663 1053 758 1082 q 493 975 568 1024 q 363 864 418 926 q 271 736 307 801 q 217 608 235 671 q 199 493 199 544 q 183 481 199 475 q 145 507 168 486 q 96 560 122 528 q 47 625 69 592 q 8 691 24 658 q -7 744 -7 724 z "},"N":{"ha":1010,"x_min":-175,"x_max":1244,"o":"m 997 1046 q 1118 1026 1069 1046 q 1195 983 1167 1007 q 1234 939 1224 960 q 1242 915 1244 918 q 1225 916 1238 911 q 1197 923 1213 921 q 1162 918 1181 925 q 1125 881 1143 911 q 1094 817 1115 865 q 1045 701 1072 769 q 987 547 1018 632 q 928 374 956 463 q 878 198 900 285 q 844 38 856 111 q 838 -91 833 -36 q 865 -169 842 -146 q 859 -189 878 -182 q 814 -185 840 -196 q 768 -161 793 -178 q 718 -125 743 -144 q 668 -134 694 -131 q 619 -138 642 -137 q 578 -138 596 -139 q 557 -135 561 -137 q 533 -78 546 -128 q 503 51 519 -28 q 467 229 488 129 q 422 436 447 329 q 369 267 397 353 q 313 102 342 182 q 254 -48 283 22 q 197 -170 225 -118 q 142 -253 168 -222 q 93 -283 115 -283 q -17 -260 38 -283 q -108 -205 -71 -237 q -160 -138 -146 -172 q -151 -81 -175 -104 q -140 -90 -150 -78 q -116 -115 -131 -103 q -84 -133 -101 -128 q -49 -121 -67 -139 q 4 -44 -26 -100 q 69 88 35 11 q 139 259 103 165 q 208 451 175 353 q 267 644 240 549 q 311 824 294 740 q 240 978 278 910 q 158 1089 203 1047 q 169 1118 143 1103 q 238 1141 194 1133 q 328 1145 281 1149 q 404 1119 376 1142 q 422 1090 414 1113 q 438 1033 429 1068 q 505 969 475 1006 q 535 894 535 932 q 525 826 535 876 q 496 703 515 776 q 556 422 519 568 q 650 147 592 276 q 691 326 665 228 q 747 524 717 424 q 812 718 778 624 q 879 885 846 813 q 943 1002 913 958 q 997 1046 974 1046 z "},"X":{"ha":1082,"x_min":-60,"x_max":1201,"o":"m 1044 1114 q 1058 1121 1044 1128 q 1092 1093 1072 1114 q 1133 1042 1111 1072 q 1172 976 1156 1011 q 1194 907 1188 942 q 1190 843 1201 872 q 1105 726 1153 789 q 1002 597 1057 664 q 888 458 947 529 q 765 315 828 386 q 833 185 799 249 q 905 68 868 122 q 979 -31 942 14 q 1054 -104 1017 -75 q 1069 -137 1076 -121 q 1040 -167 1063 -153 q 982 -191 1017 -181 q 912 -206 947 -201 q 846 -208 876 -211 q 800 -194 815 -206 q 774 -158 792 -187 q 733 -83 757 -129 q 681 24 710 -36 q 618 153 651 83 q 463 -10 538 65 q 326 -143 388 -86 q 218 -233 264 -200 q 151 -265 172 -265 q 76 -247 111 -265 q 14 -198 42 -228 q -32 -131 -14 -168 q -55 -55 -50 -93 q -51 19 -60 -17 q -17 81 -43 54 q -1 72 -10 88 q 20 37 8 57 q 46 1 32 17 q 76 -6 60 -14 q 149 40 103 7 q 251 124 194 74 q 375 237 308 174 q 511 371 442 300 q 419 551 465 463 q 328 714 372 639 q 242 845 283 789 q 168 926 201 901 q 165 948 156 936 q 199 971 175 960 q 257 990 224 982 q 326 999 290 997 q 394 995 361 1001 q 449 972 426 989 q 485 921 464 961 q 535 822 507 881 q 595 688 563 763 q 664 531 628 613 q 824 714 749 622 q 953 884 899 806 q 1033 1023 1007 963 q 1044 1114 1058 1083 z "},"O":{"ha":1333,"x_min":-12,"x_max":1335,"o":"m 753 875 q 868 860 821 875 q 944 824 915 846 q 988 777 974 803 q 1008 730 1003 751 q 1009 694 1013 708 q 1000 679 1006 679 q 992 685 994 679 q 984 697 989 690 q 969 708 979 703 q 942 714 960 714 q 865 678 906 714 q 786 585 825 643 q 711 452 747 526 q 645 300 675 378 q 594 148 615 222 q 563 15 572 74 q 557 -78 553 -43 q 583 -114 561 -114 q 651 -62 607 -114 q 747 72 694 -10 q 853 252 799 153 q 951 447 907 351 q 1024 621 996 542 q 1051 742 1051 700 q 996 931 1051 867 q 831 994 940 994 q 636 966 725 994 q 475 892 547 938 q 347 792 403 847 q 254 685 292 738 q 198 588 217 632 q 179 522 179 544 q 190 463 179 489 q 211 418 200 436 q 231 388 222 400 q 235 372 239 376 q 181 358 221 360 q 97 380 140 356 q 21 463 54 404 q -12 628 -12 521 q 28 766 -12 700 q 134 890 68 832 q 287 994 200 947 q 467 1074 374 1040 q 654 1126 561 1108 q 828 1144 747 1144 q 910 1135 860 1144 q 1017 1104 960 1125 q 1130 1052 1074 1083 q 1232 977 1186 1021 q 1306 877 1278 933 q 1335 751 1335 821 q 1308 572 1335 676 q 1233 355 1282 467 q 1117 133 1185 243 q 967 -64 1050 24 q 790 -205 885 -151 q 593 -258 696 -258 q 510 -230 557 -258 q 423 -151 464 -201 q 353 -29 382 -100 q 325 125 325 42 q 351 328 325 231 q 419 508 378 425 q 511 659 461 592 q 608 774 561 726 q 694 849 656 822 q 753 875 733 875 z "},"Z":{"ha":1135,"x_min":-19,"x_max":1232,"o":"m 956 53 q 1022 32 989 53 q 1083 -22 1054 11 q 1133 -97 1111 -56 q 1167 -177 1156 -137 q 1176 -250 1178 -217 q 1157 -301 1175 -283 q 1099 -251 1129 -274 q 1039 -216 1072 -232 q 971 -200 1006 -200 q 894 -208 947 -200 q 771 -226 842 -215 q 618 -251 700 -237 q 456 -275 536 -264 q 301 -294 375 -286 q 175 -301 228 -301 q 114 -282 144 -301 q 58 -233 83 -262 q 13 -168 32 -203 q -17 -103 -7 -133 q -19 -76 -19 -97 q -17 -29 -19 -54 q -8 19 -14 -4 q 10 53 -1 42 q 22 47 15 58 q 38 17 28 35 q 60 -17 47 -1 q 94 -32 74 -32 q 188 29 126 -18 q 325 143 249 76 q 486 292 401 210 q 649 458 571 374 q 791 623 726 542 q 892 771 856 704 q 765 735 835 758 q 627 690 696 713 q 499 650 558 667 q 404 633 439 633 q 345 653 376 633 q 285 704 314 674 q 231 773 256 735 q 192 847 207 811 q 174 912 176 882 q 188 957 172 942 q 235 932 208 943 q 289 915 258 922 q 357 908 319 908 q 430 915 382 908 q 538 933 478 922 q 665 956 599 944 q 795 979 732 968 q 912 997 858 990 q 999 1004 965 1004 q 1065 986 1032 1004 q 1128 939 1099 968 q 1183 874 1158 910 q 1219 803 1207 839 q 1231 738 1232 768 q 1213 689 1231 707 q 1186 715 1201 701 q 1118 764 1158 740 q 1113 714 1121 735 q 1057 620 1097 675 q 960 501 1017 565 q 838 366 904 436 q 701 226 771 296 q 566 88 632 156 q 446 -36 500 21 q 598 -11 521 -26 q 744 19 675 4 q 868 43 813 33 q 956 53 924 53 z "},"J":{"ha":1088,"x_min":-8,"x_max":1300,"o":"m 1226 1071 q 1267 1014 1251 1056 q 1290 928 1282 972 q 1299 849 1297 883 q 1296 814 1300 814 q 1286 824 1293 814 q 1269 847 1279 833 q 1244 875 1258 860 q 1213 901 1229 890 q 1176 831 1207 888 q 1103 691 1146 775 q 1011 504 1061 607 q 917 297 961 401 q 838 92 872 192 q 793 -85 804 -8 q 836 -211 836 -168 q 817 -257 836 -231 q 773 -306 797 -283 q 729 -342 749 -329 q 710 -346 710 -354 q 683 -229 710 -292 q 610 -104 656 -167 q 503 16 564 -42 q 374 117 442 74 q 235 188 306 161 q 100 214 165 214 q 74 208 85 214 q 54 195 63 203 q 41 180 46 188 q 33 169 36 172 q 24 170 31 167 q 10 180 17 174 q -3 194 3 186 q -8 208 -8 201 q 13 284 -8 246 q 62 354 33 322 q 120 406 90 386 q 168 426 150 426 q 289 406 229 426 q 405 352 349 386 q 513 273 461 318 q 610 178 564 228 q 697 340 647 247 q 797 531 747 432 q 893 728 847 631 q 968 907 939 826 q 842 889 904 900 q 730 863 779 878 q 650 828 681 847 q 619 785 619 808 q 624 774 619 781 q 633 763 629 768 q 640 755 638 758 q 639 751 643 751 q 553 772 586 751 q 501 822 519 792 q 477 885 483 851 q 471 946 471 918 q 507 988 471 968 q 601 1024 543 1007 q 731 1053 658 1040 q 874 1076 803 1067 q 1010 1090 946 1085 q 1117 1094 1074 1094 q 1180 1088 1153 1094 q 1226 1071 1207 1081 z "},"Y":{"ha":1178,"x_min":-90,"x_max":1303,"o":"m 871 -219 q 876 -254 876 -237 q 874 -271 876 -265 q 875 -276 875 -274 l 872 -276 q 850 -317 865 -296 q 819 -354 835 -337 q 793 -379 804 -371 q 782 -381 782 -387 q 751 -272 782 -329 q 668 -157 719 -214 q 549 -48 617 -100 q 410 44 482 4 q 267 107 339 83 q 135 131 196 131 q 92 113 107 131 q 72 90 78 96 q 63 91 69 88 q 50 100 57 94 q 38 113 43 106 q 33 126 33 121 q 53 199 33 161 q 99 267 72 236 q 153 319 125 299 q 197 340 181 340 q 331 315 264 340 q 463 249 399 290 q 588 153 528 207 q 697 43 647 100 q 753 167 721 96 q 822 317 786 238 q 896 483 858 397 q 968 651 933 568 q 890 543 936 603 q 795 431 843 483 q 706 343 747 379 q 640 307 664 307 q 619 309 633 307 q 601 315 606 311 q 559 335 590 318 q 493 375 528 353 q 432 420 458 397 q 406 457 406 443 q 419 516 406 478 q 452 602 432 554 q 498 706 472 650 q 548 817 524 761 q 593 926 572 874 q 626 1021 614 978 q 547 990 590 1011 q 458 944 504 969 q 365 893 411 919 q 281 845 319 867 q 211 810 242 824 q 165 796 181 796 q 78 819 126 796 q -10 873 29 842 q -70 936 -50 904 q -72 988 -90 968 q 6 969 -49 964 q 132 997 61 975 q 281 1051 203 1018 q 431 1113 360 1083 q 558 1165 503 1143 q 640 1186 614 1186 q 675 1172 654 1186 q 714 1138 696 1157 q 760 1095 736 1119 q 803 1045 783 1071 q 835 994 822 1019 q 849 947 849 968 q 834 909 849 938 q 797 840 819 881 q 747 749 774 799 q 695 645 719 699 q 652 540 671 592 q 628 444 633 489 q 660 435 635 421 q 720 490 685 450 q 798 590 756 531 q 883 717 840 650 q 1110 1085 985 872 q 1151 1067 1119 1085 q 1217 1021 1183 1049 q 1276 957 1250 993 q 1303 886 1303 921 q 1285 825 1303 869 q 1237 716 1267 781 q 1169 572 1207 651 q 1091 405 1131 492 q 1013 230 1051 318 q 943 59 974 142 q 892 -95 913 -24 q 871 -219 872 -167 z "},"R":{"ha":1133,"x_min":15,"x_max":1325,"o":"m 1286 -310 q 1323 -322 1325 -310 q 1292 -351 1321 -335 q 1215 -384 1263 -368 q 1114 -406 1167 -400 q 1012 -403 1061 -411 q 932 -364 963 -396 q 851 -257 892 -325 q 755 -103 811 -189 q 620 81 699 -18 q 426 282 542 179 q 379 163 401 222 q 340 46 357 103 q 312 -65 322 -11 q 301 -169 301 -119 q 284 -194 301 -192 q 241 -184 267 -196 q 185 -151 215 -172 q 130 -105 156 -129 q 87 -57 104 -81 q 69 -18 69 -33 q 84 33 69 -6 q 123 127 99 72 q 177 250 147 182 q 238 392 207 318 q 196 382 217 388 q 157 371 175 376 q 126 363 139 365 q 110 365 114 361 q 119 399 103 372 q 165 455 136 425 q 231 510 194 485 q 300 542 268 536 q 360 715 336 635 q 383 846 383 796 q 397 858 383 858 q 433 847 411 858 q 478 817 454 836 q 524 776 503 799 q 560 729 546 754 q 574 681 574 704 q 549 594 574 656 q 489 450 525 533 q 517 438 506 443 q 554 433 529 433 q 603 451 565 433 q 689 498 640 468 q 792 568 738 528 q 891 655 846 608 q 966 752 936 701 q 996 854 996 803 q 974 940 996 904 q 923 998 953 975 q 860 1031 893 1021 q 801 1042 826 1042 q 613 1015 699 1042 q 460 946 528 989 q 344 848 393 903 q 262 735 294 793 q 213 619 229 676 q 197 517 197 563 q 184 506 197 500 q 150 530 171 511 q 106 578 129 549 q 63 638 83 607 q 28 697 42 668 q 15 744 15 725 q 35 797 15 760 q 94 881 54 835 q 194 978 133 928 q 339 1071 256 1029 q 528 1140 422 1113 q 767 1167 635 1167 q 941 1141 858 1167 q 1088 1063 1024 1115 q 1189 933 1151 1011 q 1226 751 1226 856 q 1201 651 1226 701 q 1132 556 1175 601 q 1032 468 1089 510 q 913 392 975 426 q 785 334 850 358 q 664 297 721 310 q 877 82 782 190 q 1049 -113 972 -26 q 1183 -255 1125 -200 q 1286 -310 1242 -310 z "},"M":{"ha":1867,"x_min":-35,"x_max":1986,"o":"m 1740 1101 q 1785 1091 1758 1101 q 1842 1065 1813 1081 q 1898 1028 1871 1049 q 1946 986 1925 1007 q 1976 946 1967 965 q 1981 914 1986 926 q 1947 835 1974 900 q 1882 675 1919 769 q 1803 467 1844 581 q 1726 241 1761 353 q 1667 29 1690 129 q 1644 -137 1644 -71 q 1653 -201 1644 -172 q 1676 -249 1663 -229 q 1706 -281 1690 -269 q 1738 -292 1722 -292 q 1745 -297 1744 -292 q 1740 -310 1746 -303 q 1721 -323 1733 -317 q 1688 -329 1708 -329 q 1633 -317 1665 -329 q 1567 -287 1601 -306 q 1500 -244 1533 -268 q 1440 -193 1467 -219 q 1398 -141 1414 -167 q 1382 -94 1382 -115 q 1397 33 1382 -42 q 1438 193 1413 108 q 1492 367 1463 278 q 1551 538 1522 457 q 1605 685 1581 618 q 1643 793 1629 753 q 1582 708 1625 769 q 1485 567 1539 647 q 1371 397 1431 486 q 1260 226 1311 307 q 1172 83 1208 146 q 1128 -7 1135 19 q 1088 11 1118 -7 q 1025 54 1057 29 q 967 105 993 79 q 942 146 942 131 q 951 190 942 158 q 976 266 961 222 q 1012 360 992 310 q 1052 461 1032 411 q 1092 556 1072 511 q 1126 635 1111 601 q 1067 551 1106 608 q 982 422 1029 494 q 885 269 935 350 q 792 117 835 189 q 719 -12 749 44 q 682 -93 689 -68 q 655 -81 675 -93 q 609 -51 635 -69 q 555 -9 583 -32 q 503 35 526 14 q 464 76 479 57 q 449 106 449 94 q 465 172 449 122 q 506 290 481 221 q 565 443 532 358 q 633 615 599 528 q 701 789 668 703 q 761 947 735 875 q 669 905 718 932 q 572 845 621 878 q 474 780 522 813 q 385 720 426 747 q 310 676 343 693 q 257 658 276 658 q 200 670 233 658 q 131 700 167 682 q 61 742 94 718 q 5 790 28 765 q -26 836 -18 814 q -18 875 -35 858 q 47 850 6 851 q 142 863 89 849 q 258 902 196 876 q 383 958 319 928 q 508 1019 446 988 q 625 1077 571 1051 q 722 1119 679 1103 q 790 1135 765 1135 q 828 1124 806 1135 q 871 1094 850 1113 q 927 1062 896 1081 q 985 1024 958 1043 q 1031 986 1013 1004 q 1050 956 1050 968 q 1026 867 1050 928 q 968 728 1001 807 q 899 563 935 650 q 838 396 863 475 q 897 489 863 436 q 970 597 932 542 q 1046 708 1008 653 q 1116 808 1083 763 q 1171 884 1149 853 q 1201 925 1193 915 q 1203 930 1203 928 q 1206 935 1204 932 q 1275 915 1238 935 q 1345 870 1313 896 q 1400 819 1378 844 q 1422 781 1422 793 q 1411 744 1422 768 q 1383 687 1400 721 q 1347 608 1367 653 q 1307 511 1326 564 q 1362 594 1331 549 q 1428 688 1393 639 q 1499 785 1463 736 q 1569 881 1535 835 q 1738 1101 1650 988 l 1740 1101 l 1740 1101 z "},"Q":{"ha":1081,"x_min":8,"x_max":1144,"o":"m 1138 -225 q 1141 -242 1144 -225 q 1123 -286 1138 -260 q 1083 -342 1108 -312 q 1024 -399 1058 -372 q 947 -442 990 -425 q 854 -460 904 -460 q 796 -438 828 -460 q 728 -379 764 -417 q 656 -290 693 -342 q 581 -176 618 -237 q 308 -253 449 -253 q 198 -221 247 -253 q 112 -134 149 -189 q 51 -6 75 -79 q 18 151 28 68 q 12 321 8 233 q 35 493 15 408 q 106 685 65 601 q 204 828 147 769 q 336 917 261 886 q 510 947 411 947 q 575 940 544 947 q 625 913 606 932 q 650 860 644 893 q 643 774 656 826 q 634 767 639 758 q 620 790 629 775 q 593 819 611 804 q 544 835 575 835 q 494 812 528 835 q 422 744 461 789 q 418 604 410 681 q 451 447 426 528 q 512 281 475 365 q 593 119 549 197 q 651 230 624 172 q 702 343 679 288 q 742 451 725 399 q 769 544 760 503 q 781 626 776 576 q 785 731 786 676 q 778 841 785 786 q 754 940 771 896 q 710 1013 738 985 q 642 1040 682 1040 q 544 1028 579 1040 q 488 1003 508 1017 q 458 977 468 989 q 439 965 449 965 q 429 978 432 965 q 432 1013 426 992 q 455 1056 438 1033 q 508 1100 472 1079 q 601 1134 544 1121 q 743 1147 658 1147 q 880 1120 822 1147 q 976 1048 938 1093 q 1036 943 1015 1003 q 1065 819 1057 883 q 1068 689 1072 754 q 1050 565 1064 624 q 915 195 1001 356 q 718 -71 829 35 q 856 -222 789 -164 q 972 -279 924 -279 q 1033 -271 1007 -279 q 1079 -252 1060 -262 q 1113 -233 1099 -242 q 1138 -225 1126 -225 m 347 -131 q 418 -102 381 -131 q 494 -26 456 -74 q 427 104 460 38 q 365 235 394 171 q 312 359 336 300 q 271 468 288 418 q 263 438 265 454 q 240 314 249 379 q 227 185 231 249 q 228 65 224 122 q 246 -35 232 8 q 285 -105 260 -79 q 347 -131 310 -131 z "},"a":{"ha":835,"x_min":-72,"x_max":913,"o":"m 865 453 q 889 474 878 472 q 905 455 897 474 q 913 378 913 436 q 731 138 813 243 q 661 49 696 92 q 597 -28 626 6 q 547 -82 568 -61 q 518 -103 525 -103 q 492 -97 507 -103 q 465 -81 478 -90 q 413 -49 442 -68 q 360 -10 385 -31 q 318 32 335 11 q 301 69 301 53 l 301 81 q 245 -8 269 26 q 211 -43 221 -43 q 183 -35 197 -43 q 113 -2 156 -24 q 28 45 69 19 q -42 99 -12 71 q -72 151 -72 128 q -60 241 -72 192 q -28 340 -49 290 q 16 438 -8 390 q 66 523 40 486 q 115 582 92 560 q 154 604 138 604 q 219 594 179 604 q 300 567 258 583 q 379 527 342 550 q 438 479 417 504 q 454 508 447 494 q 468 533 461 522 q 496 588 486 567 q 506 615 506 610 q 547 599 513 615 q 617 561 581 583 q 678 514 653 539 q 696 471 704 489 q 665 408 688 451 q 615 304 642 364 q 564 176 589 244 q 525 42 539 108 q 574 94 547 64 q 629 157 601 124 q 685 225 657 190 q 740 293 714 260 q 865 453 801 369 m 142 74 q 156 67 143 58 q 192 104 169 76 q 242 173 214 132 q 301 260 271 214 q 362 356 332 307 q 418 447 392 404 q 392 458 407 454 q 361 463 378 463 q 316 442 339 463 q 270 387 293 421 q 226 310 247 353 q 187 224 204 268 q 158 141 169 181 q 142 74 146 101 z "},"b":{"ha":751,"x_min":-94,"x_max":692,"o":"m 436 636 q 498 617 456 636 q 583 567 540 599 q 659 493 626 535 q 692 406 692 451 q 676 327 692 375 q 635 226 661 279 q 576 119 610 172 q 506 22 543 65 q 432 -49 469 -22 q 361 -76 394 -76 q 233 -53 281 -76 q 165 -4 186 -31 q 154 -29 158 -18 q 147 -47 150 -40 q 140 -64 143 -57 q 110 -67 131 -74 q 63 -44 89 -60 q 8 -8 36 -29 q -42 32 -19 13 q -80 67 -65 51 q -94 89 -94 83 q -81 172 -94 118 q -44 293 -67 225 q 6 440 -22 361 q 65 599 35 519 q 123 753 94 678 q 174 888 151 828 q 210 990 196 949 q 224 1044 224 1032 q 267 1033 232 1044 q 339 1002 301 1021 q 406 960 376 983 q 436 917 436 938 q 421 839 436 888 q 382 728 406 790 q 328 595 358 667 q 268 447 297 524 q 314 520 290 486 q 360 580 338 554 q 401 621 382 606 q 436 636 421 636 m 218 51 q 273 81 243 51 q 333 158 303 111 q 392 260 364 204 q 441 367 419 315 q 476 458 463 418 q 489 515 489 499 q 482 547 489 539 q 463 556 475 556 q 426 531 447 556 q 382 464 406 506 q 332 370 358 422 q 281 263 306 318 q 233 154 256 207 q 192 60 210 101 q 218 51 201 51 z "},"j":{"ha":299,"x_min":-606,"x_max":404,"o":"m 393 892 q 400 864 404 876 q 371 807 389 836 q 352 774 361 790 q 333 742 343 758 q 315 712 324 726 q 300 682 307 697 q 288 639 285 654 q 250 649 279 638 q 223 660 236 654 q 194 676 210 667 q 166 694 179 685 q 142 715 153 704 q 118 761 121 736 q 129 825 117 788 l 158 896 q 188 958 175 931 q 201 994 201 985 q 224 989 207 994 q 243 982 232 986 q 265 972 254 978 q 289 961 276 967 q 314 949 301 956 q 339 935 328 942 q 361 921 350 928 q 393 892 383 906 m 303 -135 q 343 -217 331 -171 q 357 -308 357 -260 q 340 -353 357 -328 q 323 -378 332 -367 q 304 -401 314 -390 q 268 -433 285 -424 q 251 -432 251 -444 q 238 -365 251 -399 q 190 -304 222 -331 q 103 -258 157 -275 q 47 -245 78 -250 q -22 -240 15 -240 q -50 -308 -36 -275 q -79 -375 -64 -342 q -125 -472 -103 -426 q -169 -558 -147 -518 q -212 -631 -192 -599 q -254 -687 -233 -662 q -329 -736 -294 -736 q -417 -725 -365 -736 q -507 -681 -461 -715 q -578 -587 -549 -647 q -606 -429 -606 -525 q -549 -293 -606 -362 q -392 -172 -493 -226 q -161 -87 -296 -121 q -157 -76 -158 -79 q -119 28 -137 -24 q -82 133 -100 81 q -49 235 -64 186 q -18 332 -33 285 q 7 419 -4 378 q 26 496 18 460 q 43 604 43 567 q 64 597 46 604 q 83 588 74 593 q 104 578 93 583 q 128 565 115 571 q 153 550 140 558 q 176 535 165 543 q 197 519 188 526 q 228 488 218 500 q 233 460 239 471 q 224 435 231 453 q 207 390 218 418 q 185 325 197 361 q 157 246 172 289 q 125 153 142 201 q 89 53 108 106 q 70 -1 79 25 q 50 -56 61 -28 q 92 -53 71 -53 q 136 -53 114 -53 q 235 -75 194 -53 q 303 -135 276 -97 m -310 -446 q -274 -367 -292 -408 q -236 -276 -256 -325 q -233 -271 -233 -271 q -277 -286 -257 -278 q -317 -304 -297 -294 q -406 -376 -372 -335 q -439 -465 -439 -418 q -438 -508 -439 -489 q -436 -542 -437 -526 q -428 -583 -432 -569 q -419 -603 -424 -599 q -411 -607 -414 -607 q -371 -562 -399 -607 q -342 -511 -357 -540 q -310 -446 -328 -482 z "},"@":{"ha":1032,"x_min":13,"x_max":1072,"o":"m 706 1031 q 760 1022 725 1031 q 835 996 794 1014 q 917 949 875 978 q 994 880 960 919 q 1051 788 1029 840 q 1072 671 1072 736 q 1056 564 1072 615 q 1013 467 1040 513 q 952 381 986 421 q 883 308 918 342 q 696 168 800 231 q 669 176 689 168 q 628 197 649 183 q 590 226 607 210 q 574 261 574 243 q 584 331 574 292 q 611 415 594 371 q 565 339 588 375 q 523 274 542 303 q 490 229 504 246 q 468 213 475 213 q 456 215 464 213 q 421 233 442 221 q 380 262 400 246 q 346 297 360 278 q 332 333 332 315 q 357 438 332 379 q 416 549 382 496 q 485 638 450 601 q 538 674 519 674 q 581 668 558 674 q 626 652 604 663 q 663 626 647 642 q 686 592 679 611 q 697 607 692 600 q 704 621 701 614 q 726 671 726 665 q 749 661 732 671 q 784 637 767 651 q 813 606 801 622 q 819 576 825 590 q 796 531 813 563 q 760 456 779 499 q 724 363 742 413 q 699 265 707 314 q 747 313 719 281 q 803 386 775 344 q 860 475 832 428 q 910 567 888 522 q 945 651 932 613 q 958 715 958 690 q 947 787 958 758 q 918 832 936 815 q 876 856 900 849 q 826 863 853 863 q 636 819 724 863 q 478 709 549 776 q 353 560 407 642 q 262 400 299 478 q 206 257 225 322 q 188 160 188 192 q 192 67 188 110 q 211 -6 197 25 q 247 -55 225 -37 q 306 -72 269 -72 q 360 -60 329 -72 q 424 -29 390 -47 q 489 8 457 -11 q 546 41 521 28 q 586 57 571 54 q 601 46 601 60 q 574 -19 601 24 q 506 -106 547 -62 q 417 -181 465 -149 q 328 -212 369 -212 q 232 -172 286 -212 q 128 -65 178 -132 q 46 88 79 1 q 13 269 13 175 q 51 509 13 401 q 152 701 90 617 q 292 848 214 786 q 447 951 369 910 q 592 1011 524 992 q 706 1031 661 1031 m 453 297 q 467 295 454 286 q 499 326 479 304 q 542 381 518 349 q 590 449 565 414 q 638 519 614 485 q 679 582 661 554 q 654 593 674 593 q 617 577 638 593 q 576 535 597 561 q 535 476 556 508 q 498 411 515 444 q 469 348 481 378 q 453 297 457 318 z "},"!":{"ha":692,"x_min":131,"x_max":600,"o":"m 356 1025 q 404 1013 365 1025 q 487 980 443 1000 q 565 935 531 960 q 600 889 600 911 q 587 808 600 856 q 553 703 574 760 q 509 584 532 647 q 465 458 486 521 q 431 333 444 394 q 418 217 418 271 q 366 216 403 201 q 290 256 329 231 q 222 306 251 281 q 192 340 192 332 q 206 442 192 381 q 239 574 219 504 q 281 716 258 643 q 322 851 304 789 q 351 960 340 914 q 356 1025 361 1007 m 158 179 q 272 160 222 174 q 314 144 293 153 q 351 125 335 136 q 378 99 368 114 q 388 65 388 83 q 372 -67 388 -11 q 347 -153 356 -122 q 310 -147 344 -161 q 236 -110 276 -133 q 163 -58 196 -86 q 131 -10 131 -29 q 136 33 131 11 q 148 80 142 56 q 158 129 154 104 q 158 179 161 154 z "},"^":{"ha":793,"x_min":156,"x_max":611,"o":"m 156 853 q 268 986 215 928 q 313 1035 290 1011 q 354 1077 335 1058 q 389 1108 374 1096 q 411 1119 404 1119 q 440 1113 421 1119 q 481 1096 458 1107 q 528 1072 504 1085 q 570 1044 551 1058 q 600 1016 589 1029 q 610 993 611 1003 q 594 902 599 942 q 586 832 589 863 q 580 779 583 801 q 568 743 576 757 q 527 716 556 724 q 468 708 499 708 q 454 738 460 708 q 444 802 449 767 q 436 869 440 838 q 426 907 432 901 q 412 899 422 910 q 387 871 401 889 q 356 831 372 853 q 324 788 339 808 q 298 754 310 768 q 282 739 286 740 q 255 747 275 738 q 213 774 235 757 q 173 811 190 790 q 156 853 156 832 z "},"+":{"ha":857,"x_min":81,"x_max":761,"o":"m 647 660 q 700 644 678 660 q 735 601 722 628 q 755 537 749 574 q 761 458 761 500 q 759 445 761 444 q 751 452 757 446 q 735 466 744 458 q 711 474 725 474 q 619 464 671 474 q 510 440 567 454 q 460 290 481 369 q 439 118 439 211 q 394 114 424 103 q 334 146 364 125 q 282 189 304 167 q 260 219 260 211 q 270 296 260 251 q 297 392 281 340 q 197 379 240 381 q 132 393 153 378 q 108 428 121 400 q 88 487 96 457 q 81 541 81 517 q 94 564 81 565 q 133 567 104 563 q 200 578 161 571 q 286 596 239 586 q 382 615 333 606 q 417 703 400 661 q 449 779 435 744 q 470 840 463 814 q 478 878 478 865 q 512 869 488 878 q 563 847 536 861 q 609 814 589 833 q 629 772 629 794 q 622 716 629 744 q 604 656 615 688 q 647 660 631 660 z "},"-":{"ha":829,"x_min":108,"x_max":694,"o":"m 182 369 q 156 385 169 365 q 133 433 143 406 q 115 490 122 461 q 108 533 108 519 q 137 555 108 543 q 210 579 165 567 q 308 604 254 592 q 414 626 363 617 q 508 642 465 636 q 572 647 551 647 q 626 631 603 647 q 665 588 650 615 q 687 523 679 560 q 694 443 694 486 q 692 430 694 429 q 685 437 690 431 q 669 451 679 443 q 644 458 660 458 q 585 455 629 458 q 478 441 542 451 q 339 413 415 431 q 182 369 263 396 z "},"=":{"ha":751,"x_min":111,"x_max":710,"o":"m 179 267 q 155 281 167 263 q 134 327 143 300 q 119 383 125 354 q 114 425 114 411 q 144 447 114 435 q 220 471 174 458 q 323 496 267 483 q 433 518 379 508 q 531 533 486 528 q 596 539 575 539 q 649 524 626 539 q 684 482 671 508 q 703 419 697 456 q 710 342 710 383 q 708 328 710 328 q 699 335 706 329 q 683 349 693 342 q 660 357 674 357 q 598 353 644 357 q 485 340 551 350 q 339 312 418 329 q 179 267 260 294 m 185 511 q 159 524 172 507 q 135 567 146 542 q 118 620 125 593 q 111 661 111 647 q 135 683 111 671 q 199 708 160 694 q 285 733 238 721 q 377 755 332 746 q 461 770 422 764 q 521 776 500 776 q 574 760 551 776 q 609 719 596 743 q 628 666 622 694 q 635 614 635 638 q 633 597 635 600 q 624 594 631 593 q 608 598 618 594 q 585 601 599 601 q 451 584 556 601 q 185 511 346 567 z "},"%":{"ha":1008,"x_min":96,"x_max":908,"o":"m 731 921 q 765 903 739 921 q 820 860 792 885 q 871 807 849 835 q 893 758 893 779 q 854 699 893 744 q 758 588 815 654 q 632 440 700 521 q 506 274 564 358 q 410 108 449 190 q 371 -42 371 26 q 344 -43 363 -50 q 305 -20 326 -36 q 261 18 283 -4 q 220 60 239 40 q 190 97 201 81 q 178 118 178 113 q 201 209 178 156 q 264 325 225 263 q 353 455 303 388 q 454 588 403 522 q 556 712 506 653 q 644 816 606 771 q 707 890 683 861 q 731 921 731 918 m 806 353 q 838 341 819 353 q 872 312 856 329 q 898 274 888 294 q 908 236 908 254 q 894 203 908 225 q 859 154 881 181 q 810 100 838 128 q 755 50 782 72 q 703 13 728 28 q 663 -1 679 -1 q 615 17 638 -1 q 574 59 592 35 q 546 108 557 83 q 535 146 535 132 q 551 194 535 160 q 599 263 567 228 q 683 326 632 299 q 806 353 735 353 m 731 179 q 761 213 749 197 q 783 239 774 228 q 761 234 772 238 q 739 228 750 231 q 690 194 715 217 q 666 169 675 182 q 653 146 657 156 q 661 129 657 139 q 667 124 665 128 q 694 146 678 132 q 731 179 711 160 m 471 778 q 455 730 471 764 q 406 660 439 696 q 322 598 374 625 q 200 571 271 571 q 167 583 185 571 q 133 612 149 594 q 107 649 118 629 q 96 686 96 669 q 125 743 96 704 q 194 822 154 782 q 276 893 235 863 q 342 924 317 924 q 390 906 367 924 q 431 864 414 888 q 460 816 449 840 q 471 778 471 792 m 275 744 q 244 711 257 726 q 221 685 231 696 q 267 696 243 686 q 314 729 294 710 q 338 755 329 742 q 353 778 347 768 q 348 785 350 781 q 343 792 346 789 q 338 800 340 797 q 275 744 313 782 z "},"&":{"ha":915,"x_min":43,"x_max":818,"o":"m 536 974 q 665 904 610 950 q 755 807 719 858 q 804 707 790 756 q 810 629 818 658 q 756 573 803 610 q 642 490 710 536 q 495 392 574 443 q 347 292 417 340 q 226 204 276 244 q 163 140 175 164 q 433 267 313 207 q 535 318 485 292 q 625 368 585 344 q 692 411 665 392 q 724 443 719 431 q 767 393 749 418 q 792 344 782 371 q 794 292 803 318 q 763 257 790 279 q 692 208 735 235 q 594 149 649 181 q 482 86 539 118 q 369 23 425 54 q 269 -35 314 -8 q 192 -81 224 -61 q 151 -112 160 -101 q 126 -116 139 -126 q 100 -80 113 -106 q 76 -19 88 -54 q 58 48 65 15 q 47 108 50 81 q 46 144 43 135 q 106 219 56 174 q 228 319 157 265 q 382 428 300 372 q 534 534 464 485 q 653 622 604 583 q 707 676 701 660 q 698 726 715 701 q 653 773 681 751 q 596 810 626 794 q 546 832 565 825 q 501 839 526 838 q 451 834 475 840 q 408 813 428 828 q 381 772 389 797 q 379 697 375 754 q 399 562 383 640 q 444 394 415 483 q 520 223 474 304 q 631 77 567 142 q 779 -14 694 13 q 800 -29 801 -21 q 783 -46 799 -37 q 742 -61 768 -54 q 690 -72 717 -68 q 640 -78 664 -76 q 604 -75 617 -79 q 476 -3 540 -56 q 354 121 413 49 q 249 281 296 193 q 174 463 203 369 q 140 647 146 556 q 161 819 135 739 q 226 908 178 874 q 333 961 275 943 q 447 981 390 979 q 536 974 503 983 z "},"#":{"ha":1063,"x_min":13,"x_max":942,"o":"m 910 557 q 926 513 918 538 q 938 467 933 489 q 941 431 942 446 q 932 418 940 417 q 890 425 914 421 q 833 435 865 429 q 813 406 824 419 q 790 378 801 393 q 899 326 863 358 q 909 300 904 319 q 917 258 914 281 q 922 214 921 235 q 924 185 924 193 q 913 173 924 175 q 871 171 903 171 q 800 183 857 171 q 660 207 743 194 q 601 108 624 156 q 579 22 578 61 q 536 17 563 6 q 485 52 510 29 q 442 99 460 75 q 424 132 424 124 q 431 172 421 147 q 460 228 440 196 q 418 229 439 229 q 376 229 397 229 q 348 148 358 189 q 338 67 338 107 q 292 65 321 50 q 233 106 263 79 q 183 159 204 132 q 161 196 161 186 q 163 208 161 204 q 132 201 147 206 q 101 192 117 196 q 73 208 89 188 q 44 257 57 228 q 22 317 31 286 q 13 363 13 347 q 30 372 13 367 q 78 383 47 378 q 151 394 110 389 q 243 404 193 400 q 260 431 251 418 q 278 458 269 444 q 231 449 254 456 q 185 436 207 443 q 154 452 171 432 q 122 501 138 472 q 97 561 107 531 q 86 607 86 592 q 113 620 86 613 q 183 634 139 628 q 287 646 228 640 q 411 654 346 651 q 467 745 447 706 q 482 804 488 785 q 516 796 492 804 q 565 772 540 788 q 609 736 590 757 q 628 690 628 715 q 622 651 628 669 q 685 646 654 649 q 743 638 715 643 q 772 694 763 669 q 778 731 781 718 q 812 722 788 731 q 861 699 836 714 q 905 663 886 683 q 924 617 924 642 q 920 588 924 603 q 910 557 917 574 m 583 408 q 603 435 593 422 q 622 463 613 449 q 572 467 597 465 q 522 469 547 468 q 502 440 511 454 q 482 411 493 426 q 533 410 508 411 q 583 408 558 410 z "},"~":{"ha":1101,"x_min":44,"x_max":996,"o":"m 917 560 q 940 541 926 560 q 967 497 954 522 q 988 442 979 471 q 996 394 996 414 q 970 345 996 375 q 908 288 944 315 q 831 240 871 260 q 760 221 790 221 q 703 227 739 221 q 624 242 667 233 q 534 263 581 251 q 446 283 488 274 q 371 298 404 292 q 321 304 338 304 q 267 287 296 304 q 215 247 239 269 q 174 203 190 225 q 157 174 157 182 q 149 168 157 163 q 128 190 140 174 q 101 228 115 206 q 74 274 86 251 q 53 315 61 297 q 44 340 44 333 q 63 381 44 350 q 114 444 82 413 q 189 502 146 476 q 281 528 232 528 q 397 515 329 528 q 533 488 465 503 q 660 460 601 472 q 750 447 718 447 q 811 465 782 447 q 864 503 840 482 q 917 560 890 528 z "},"`":{"ha":697,"x_min":182,"x_max":603,"o":"m 189 1000 q 199 1012 182 1007 q 244 1020 215 1017 q 311 1024 274 1024 q 383 1023 349 1025 q 444 1015 418 1021 q 481 1000 471 1010 q 503 967 490 990 q 531 913 517 943 q 559 848 546 882 q 583 785 572 814 q 598 735 593 756 q 600 713 603 715 q 567 708 596 708 q 504 710 538 707 q 444 718 471 713 q 417 731 417 724 q 402 756 417 736 q 365 802 388 775 q 315 861 343 829 q 263 921 288 893 q 217 970 238 949 q 189 1000 197 992 z "},";":{"ha":757,"x_min":142,"x_max":621,"o":"m 374 694 q 397 701 376 697 q 444 708 417 706 q 502 710 471 710 q 560 706 533 710 q 603 693 586 701 q 621 671 621 685 q 605 610 621 650 q 565 532 589 571 q 516 465 542 493 q 469 436 490 436 q 424 441 449 436 q 379 456 400 446 q 344 478 358 465 q 329 507 329 492 q 333 552 329 524 q 344 610 338 581 q 358 663 350 639 q 374 694 367 688 m 271 315 q 310 315 282 326 q 368 276 339 303 q 420 215 397 250 q 443 143 443 179 q 419 72 443 114 q 363 -11 394 29 q 303 -80 332 -51 q 263 -108 274 -108 q 229 -99 251 -108 q 186 -75 207 -89 q 153 -46 165 -61 q 153 -19 142 -31 q 211 55 186 14 q 251 140 236 96 q 272 230 267 185 q 271 315 276 275 z "},":":{"ha":688,"x_min":169,"x_max":561,"o":"m 314 686 q 337 693 317 689 q 384 699 357 697 q 442 701 411 701 q 500 697 474 701 q 544 685 526 693 q 561 663 561 676 q 545 602 561 642 q 506 524 529 563 q 456 456 482 485 q 410 428 431 428 q 365 433 389 428 q 319 447 340 438 q 284 470 299 457 q 269 499 269 483 q 274 544 269 515 q 284 601 278 572 q 299 655 290 631 q 314 686 307 679 m 214 219 q 237 226 217 222 q 284 233 257 231 q 342 235 311 235 q 399 231 372 235 q 442 218 425 226 q 460 196 460 210 q 444 135 460 175 q 405 58 428 96 q 356 -10 382 19 q 310 -39 331 -39 q 265 -33 289 -39 q 219 -18 240 -28 q 184 5 199 -8 q 169 33 169 18 q 174 77 169 49 q 184 135 178 106 q 199 188 190 164 q 214 219 207 213 z "},",":{"ha":694,"x_min":207,"x_max":507,"o":"m 335 289 q 374 288 346 300 q 432 251 403 276 q 484 190 461 225 q 507 117 507 154 q 483 45 507 88 q 427 -37 458 3 q 367 -105 396 -76 q 326 -133 338 -133 q 293 -124 315 -133 q 250 -101 271 -114 q 218 -72 229 -87 q 218 -46 207 -57 q 276 28 251 -12 q 315 114 300 69 q 335 203 331 158 q 335 289 340 249 z "},".":{"ha":706,"x_min":196,"x_max":486,"o":"m 240 207 q 263 214 243 210 q 310 220 283 218 q 369 222 338 222 q 426 218 400 222 q 469 206 451 214 q 486 183 486 197 q 470 123 486 163 q 431 45 454 83 q 383 -22 408 7 q 336 -51 357 -51 q 291 -46 315 -51 q 246 -31 267 -40 q 210 -8 225 -21 q 196 21 196 6 q 200 65 196 36 q 210 122 204 93 q 225 176 217 151 q 240 207 233 200 z "},"'":{"ha":811,"x_min":265,"x_max":565,"o":"m 393 989 q 433 988 404 1000 q 490 951 461 976 q 542 890 519 925 q 565 817 565 854 q 541 745 565 788 q 485 663 517 703 q 425 594 454 622 q 385 565 396 565 q 351 575 374 565 q 308 599 329 585 q 276 628 288 613 q 276 654 265 643 q 334 728 310 688 q 374 814 358 769 q 394 903 389 858 q 393 989 399 949 z "},"\"":{"ha":878,"x_min":110,"x_max":713,"o":"m 239 929 q 278 928 250 940 q 336 891 307 917 q 388 830 365 865 q 411 757 411 794 q 387 685 411 728 q 331 603 363 643 q 271 534 300 563 q 231 506 242 506 q 197 515 219 506 q 154 539 175 525 q 122 568 133 553 q 121 594 110 583 q 179 669 154 628 q 219 754 204 710 q 240 844 235 799 q 239 929 244 889 m 540 929 q 580 928 551 940 q 638 891 608 917 q 690 830 667 865 q 713 757 713 794 q 688 685 713 728 q 633 603 664 643 q 572 534 601 563 q 532 506 543 506 q 499 515 521 506 q 456 539 476 525 q 423 568 435 553 q 422 594 411 583 q 481 669 456 628 q 521 754 506 710 q 541 844 536 799 q 540 929 546 889 z "},"_":{"ha":1103,"x_min":33,"x_max":958,"o":"m 106 -318 q 81 -302 93 -322 q 58 -254 68 -282 q 40 -197 47 -226 q 33 -154 33 -168 q 87 -133 33 -144 q 222 -110 140 -122 q 403 -88 304 -99 q 590 -69 501 -78 q 747 -55 679 -60 q 835 -50 814 -50 q 890 -66 867 -50 q 928 -109 913 -82 q 951 -174 943 -136 q 958 -253 958 -211 q 956 -266 958 -267 q 948 -259 954 -265 q 932 -245 942 -253 q 908 -237 922 -237 q 850 -238 899 -237 q 731 -242 801 -239 q 573 -250 660 -244 q 401 -265 486 -256 q 238 -287 315 -274 q 106 -318 160 -300 z "},"$":{"ha":1160,"x_min":67,"x_max":1115,"o":"m 990 885 q 1032 868 1008 885 q 1074 831 1056 851 q 1104 793 1093 810 q 1108 776 1115 776 q 1034 757 1076 776 q 952 708 992 738 q 883 642 913 678 q 851 575 854 607 q 838 583 850 574 q 815 608 826 592 q 794 646 803 625 q 793 689 786 667 q 827 744 801 713 q 883 807 853 776 q 853 811 871 811 q 780 799 821 811 q 694 763 739 786 q 675 651 685 710 q 654 531 665 593 q 749 540 701 540 q 819 515 786 540 q 876 458 851 490 q 914 394 900 426 q 928 349 928 363 q 911 281 928 321 q 867 197 894 240 q 803 111 839 154 q 731 34 768 68 q 658 -22 694 0 q 594 -43 622 -43 q 578 -42 586 -43 q 563 -37 571 -40 q 551 -151 556 -97 q 543 -253 546 -206 q 497 -256 524 -271 q 445 -213 469 -240 q 404 -158 421 -186 q 388 -118 388 -129 q 394 -46 389 -92 q 407 60 399 0 q 426 190 415 119 q 447 335 436 260 q 351 290 397 313 q 270 251 306 268 q 213 222 235 233 q 188 211 190 211 q 163 244 182 211 q 122 320 143 276 q 83 408 100 364 q 67 475 67 451 q 110 584 67 525 q 223 701 154 643 q 376 813 292 760 q 539 907 460 867 q 567 1085 556 1013 q 579 1178 578 1158 q 617 1168 590 1178 q 670 1142 643 1158 q 717 1101 697 1125 q 735 1050 736 1078 q 733 1021 735 1036 q 729 988 732 1006 q 776 994 761 994 q 820 982 797 994 q 865 949 843 969 q 908 906 888 929 q 946 861 929 882 q 972 878 960 872 q 990 885 983 885 m 761 425 q 701 419 733 425 q 632 403 668 414 q 612 292 621 347 q 594 181 603 236 q 671 240 632 204 q 741 310 710 275 q 792 375 772 346 q 811 417 811 404 q 797 424 811 424 q 761 425 783 425 m 469 478 q 483 557 476 518 q 496 636 489 596 q 390 552 440 594 q 303 473 340 510 q 243 408 265 436 q 221 368 221 381 q 294 404 254 386 q 374 439 329 419 q 469 478 418 458 z "},"?":{"ha":989,"x_min":58,"x_max":922,"o":"m 297 108 q 394 78 351 94 q 461 42 431 63 q 492 -6 492 21 q 480 -97 492 -58 q 463 -157 468 -136 q 431 -155 461 -162 q 364 -133 400 -147 q 298 -101 328 -118 q 268 -69 268 -83 q 274 -33 268 -56 q 285 16 279 -10 q 296 67 292 42 q 297 108 300 92 m 586 1079 q 698 1055 639 1079 q 807 987 757 1031 q 890 883 857 943 q 922 753 922 824 q 888 697 922 733 q 803 610 854 660 q 695 500 753 560 q 591 375 638 440 q 517 242 544 310 q 501 110 490 174 q 408 139 449 117 q 345 192 374 158 q 317 288 317 226 q 352 393 317 335 q 440 512 388 451 q 554 631 493 572 q 668 737 615 689 q 755 818 721 785 q 789 861 789 851 q 753 876 778 869 q 697 887 732 882 q 604 892 661 892 q 471 865 539 892 q 347 798 403 839 q 256 708 292 757 q 219 613 219 658 q 224 573 219 588 q 235 551 228 558 q 250 540 240 543 q 154 572 196 550 q 88 625 118 592 q 58 711 58 658 q 106 828 58 764 q 228 949 153 893 q 398 1042 304 1004 q 586 1079 492 1079 z "},"*":{"ha":924,"x_min":126,"x_max":804,"o":"m 796 536 q 800 520 803 532 q 788 494 797 508 q 765 466 779 481 q 733 442 750 451 q 699 428 717 432 q 667 433 682 425 q 619 467 656 442 q 533 525 583 492 q 521 442 526 481 q 509 374 515 403 q 497 327 503 344 q 488 310 492 310 q 453 315 476 310 q 406 330 429 321 q 367 349 383 339 q 354 369 351 360 q 379 465 369 408 q 397 583 389 521 q 317 544 354 563 q 250 510 279 525 q 201 484 221 494 q 178 471 182 474 q 155 485 168 465 q 134 534 142 506 q 128 591 126 563 q 153 632 131 619 q 206 659 167 640 q 297 701 244 678 q 232 753 263 728 q 180 797 201 778 q 147 830 158 817 q 138 847 135 843 q 159 874 143 857 q 194 907 175 892 q 230 931 213 922 q 254 932 247 940 q 324 865 282 901 q 417 792 367 829 q 426 956 424 888 q 428 1035 428 1024 q 451 1049 428 1047 q 503 1044 475 1051 q 556 1019 532 1036 q 579 976 579 1001 q 576 919 579 961 q 567 818 574 876 q 646 849 608 835 q 712 873 683 864 q 758 886 740 882 q 778 886 775 890 q 790 853 783 876 q 800 806 796 831 q 803 763 804 782 q 792 742 801 743 q 699 715 751 733 q 586 671 646 696 q 725 580 665 617 q 796 536 785 543 z "},"/":{"ha":946,"x_min":96,"x_max":986,"o":"m 806 1043 q 844 1024 815 1043 q 905 976 874 1004 q 961 916 936 947 q 986 863 986 885 q 957 815 986 851 q 881 725 928 779 q 773 602 833 671 q 649 457 713 533 q 524 300 585 381 q 417 142 464 219 q 340 -5 369 65 q 311 -132 311 -75 q 281 -134 301 -142 q 238 -109 261 -126 q 189 -67 214 -92 q 143 -20 164 -43 q 109 21 122 3 q 96 44 96 39 q 126 150 96 86 q 207 291 157 214 q 321 453 257 368 q 451 620 385 538 q 581 778 517 703 q 694 910 644 853 q 775 1004 744 968 q 806 1043 806 1040 z "},"|":{"ha":900,"x_min":329,"x_max":629,"o":"m 392 1143 q 430 1149 400 1149 q 496 1145 460 1150 q 565 1128 532 1140 q 611 1099 599 1117 q 614 1032 617 1090 q 603 883 611 974 q 586 676 596 792 q 568 435 576 560 q 556 185 560 311 q 558 -50 553 60 q 581 -246 564 -160 q 629 -378 597 -332 q 608 -397 626 -392 q 564 -401 590 -401 q 507 -394 538 -400 q 450 -382 476 -389 q 405 -368 424 -375 q 383 -357 386 -361 q 348 -240 360 -322 q 333 -47 336 -158 q 333 194 329 64 q 344 456 338 325 q 360 710 351 588 q 377 928 369 833 q 389 1082 385 1024 q 392 1143 393 1140 z "},"]":{"ha":897,"x_min":183,"x_max":674,"o":"m 624 832 q 638 688 629 769 q 653 516 646 607 q 665 330 660 425 q 672 146 671 235 q 669 -22 674 57 q 653 -157 664 -100 q 663 -192 658 -174 q 669 -230 667 -211 q 672 -264 671 -249 q 671 -287 672 -279 q 644 -303 669 -297 q 581 -314 619 -310 q 494 -319 542 -318 q 402 -321 447 -321 q 319 -319 357 -321 q 260 -315 281 -318 q 211 -279 228 -311 q 190 -211 194 -247 q 192 -147 186 -175 q 213 -119 197 -118 q 283 -130 232 -122 q 414 -136 335 -137 q 433 26 429 -64 q 435 211 438 115 q 424 404 432 307 q 406 589 415 501 q 389 749 397 676 q 378 868 381 821 q 266 872 310 874 q 204 868 222 869 q 190 881 194 867 q 184 915 185 894 q 188 961 183 936 q 203 1008 193 986 q 228 1044 213 1029 q 264 1061 243 1060 q 323 1061 285 1063 q 406 1056 361 1060 q 499 1047 451 1053 q 584 1033 546 1040 q 647 1017 622 1025 q 672 999 671 1008 q 670 962 674 986 q 660 911 667 938 q 643 863 653 885 q 624 832 633 840 z "},"[":{"ha":800,"x_min":211,"x_max":703,"o":"m 672 -142 q 692 -169 686 -140 q 694 -233 699 -197 q 672 -301 689 -269 q 625 -337 656 -333 q 566 -342 604 -340 q 483 -343 528 -343 q 390 -342 438 -343 q 303 -336 342 -340 q 239 -326 264 -332 q 213 -311 214 -321 q 212 -287 211 -303 q 215 -252 213 -271 q 222 -215 218 -233 q 231 -179 225 -196 q 215 -44 219 -122 q 213 124 211 35 q 219 308 214 213 q 231 494 224 403 q 247 666 239 585 q 261 810 254 747 q 241 840 250 818 q 225 888 232 863 q 215 939 218 914 q 213 976 211 964 q 238 994 213 986 q 301 1010 263 1003 q 386 1024 339 1018 q 478 1034 433 1031 q 562 1039 524 1038 q 621 1039 600 1040 q 670 1006 651 1036 q 696 939 689 975 q 698 874 703 903 q 679 846 693 844 q 618 849 663 847 q 506 846 574 851 q 494 727 503 800 q 477 567 486 654 q 460 382 468 479 q 449 188 451 285 q 450 2 446 92 q 469 -160 454 -87 q 601 -152 550 -160 q 672 -142 653 -144 z "},"<":{"ha":971,"x_min":136,"x_max":808,"o":"m 796 110 q 808 78 808 97 q 801 36 808 58 q 780 -7 793 14 q 753 -44 767 -28 q 726 -67 739 -60 q 708 -68 714 -74 q 658 -21 701 -61 q 551 74 614 19 q 413 188 488 128 q 269 293 339 247 q 235 307 254 297 q 197 328 215 317 q 163 349 178 339 q 142 367 149 360 q 149 397 136 372 q 185 457 161 421 q 222 513 206 493 q 281 596 249 551 q 347 685 314 640 q 413 770 381 729 q 473 845 446 811 q 520 903 500 879 q 549 936 540 928 q 601 947 568 956 q 665 919 635 939 q 715 878 696 900 q 726 847 735 856 q 682 800 719 840 q 593 700 644 760 q 485 569 542 640 q 381 431 428 499 q 507 339 439 389 q 635 242 575 289 q 739 159 694 196 q 796 110 783 122 z "},">":{"ha":925,"x_min":126,"x_max":807,"o":"m 758 453 q 794 392 782 415 q 801 363 807 368 q 779 344 794 356 q 746 323 764 333 q 708 303 728 313 q 674 289 689 293 q 530 183 604 243 q 392 69 456 124 q 285 -25 329 15 q 235 -72 242 -65 q 204 -61 226 -81 q 163 -11 182 -42 q 135 53 143 19 q 146 106 126 86 q 203 154 158 118 q 307 238 247 190 q 435 335 367 285 q 561 426 503 385 q 458 565 515 494 q 349 696 400 636 q 260 796 297 756 q 215 843 222 836 q 226 874 207 851 q 276 915 246 896 q 340 942 307 933 q 393 931 374 950 q 443 872 406 918 q 528 765 481 826 q 628 635 576 704 q 721 507 679 567 q 738 484 728 499 q 758 453 747 469 z "},"{":{"ha":690,"x_min":99,"x_max":817,"o":"m 686 1160 q 762 1144 729 1160 q 806 1108 794 1128 q 804 1072 817 1088 q 746 1056 792 1056 q 692 1024 715 1056 q 650 943 669 993 q 613 831 631 893 q 574 707 594 768 q 527 592 553 646 q 468 504 501 538 q 428 474 450 486 q 382 453 406 461 q 435 401 425 438 q 432 311 444 368 q 397 190 419 254 q 350 58 375 125 q 310 -62 325 -8 q 295 -151 294 -117 q 326 -185 296 -185 q 374 -201 372 -185 q 350 -237 375 -217 q 281 -273 325 -257 q 193 -289 238 -289 q 124 -258 144 -289 q 101 -176 103 -226 q 110 -60 99 -125 q 138 72 121 4 q 170 203 154 139 q 192 319 186 268 q 191 401 199 369 q 153 432 183 432 q 125 438 133 432 q 119 453 117 444 q 133 467 121 461 q 165 474 144 474 q 243 524 207 474 q 315 651 279 575 q 390 817 351 728 q 472 982 428 906 q 568 1109 515 1058 q 686 1160 621 1160 z "},"}":{"ha":733,"x_min":-121,"x_max":597,"o":"m 11 -282 q -65 -266 -33 -282 q -109 -230 -97 -250 q -108 -194 -121 -210 q -50 -178 -96 -178 q 3 -147 -19 -178 q 46 -65 26 -115 q 83 47 65 -15 q 122 171 101 110 q 169 285 143 232 q 228 372 194 339 q 268 403 246 392 q 314 424 290 415 q 261 476 271 442 q 264 566 251 510 q 299 688 276 622 q 346 819 321 753 q 386 939 371 885 q 401 1027 401 993 q 369 1061 400 1061 q 322 1077 324 1061 q 347 1113 321 1093 q 415 1149 372 1133 q 503 1165 458 1165 q 572 1134 551 1165 q 595 1053 593 1103 q 586 938 597 1003 q 558 806 575 874 q 526 673 542 738 q 503 558 510 608 q 505 477 497 508 q 543 446 513 446 q 571 439 563 446 q 577 424 579 432 q 563 410 575 417 q 531 403 551 403 q 453 352 489 403 q 381 225 417 301 q 307 60 344 149 q 225 -104 269 -28 q 128 -231 181 -181 q 11 -282 76 -282 z "},"\\":{"ha":924,"x_min":142,"x_max":758,"o":"m 758 -162 q 717 -176 751 -169 q 641 -184 683 -182 q 560 -182 599 -186 q 504 -162 521 -178 q 485 -108 496 -154 q 460 10 475 -62 q 428 174 446 82 q 388 365 410 265 q 339 563 365 464 q 282 751 313 663 q 217 909 251 839 q 142 1019 182 979 q 161 1042 142 1033 q 210 1055 181 1050 q 275 1060 240 1060 q 340 1059 310 1061 q 393 1054 371 1057 q 419 1047 415 1051 q 478 951 449 1018 q 537 794 508 883 q 592 599 565 704 q 642 388 618 493 q 687 185 667 283 q 722 10 707 86 q 747 -113 738 -67 q 758 -162 756 -160 z "},"(":{"ha":851,"x_min":214,"x_max":988,"o":"m 814 1132 q 920 1117 885 1139 q 971 1065 956 1094 q 988 985 988 1031 q 667 713 797 888 q 563 538 611 638 q 485 312 514 439 q 454 28 457 185 q 488 -317 451 -128 q 369 -274 424 -303 q 283 -206 324 -249 q 231 -92 242 -162 q 228 142 214 13 q 279 403 242 271 q 374 664 317 536 q 502 892 432 792 q 652 1058 572 993 q 814 1132 732 1124 z "},")":{"ha":826,"x_min":-118,"x_max":656,"o":"m 56 -301 q -51 -286 -15 -308 q -101 -235 -87 -264 q -118 -154 -118 -200 q 203 118 72 -57 q 307 292 258 193 q 384 517 356 390 q 415 801 413 644 q 382 1147 417 957 q 500 1104 446 1133 q 587 1035 546 1079 q 639 922 628 992 q 641 689 656 818 q 589 427 626 560 q 494 167 551 294 q 367 -62 438 39 q 217 -228 297 -162 q 56 -301 138 -293 z "}}}
